ISO-10303-21;
HEADER;
FILE_DESCRIPTION(('Open CASCADE Model'),'2;1');
FILE_NAME('Open CASCADE Shape Model','2026-02-13T19:32:29',('Author'),(
    'Open CASCADE'),'Open CASCADE STEP processor 7.7','Open CASCADE 7.7'
  ,'Unknown');
FILE_SCHEMA(('AUTOMOTIVE_DESIGN { 1 0 10303 214 1 1 1 1 }'));
ENDSEC;
DATA;
#1 = APPLICATION_PROTOCOL_DEFINITION('international standard',
  'automotive_design',2000,#2);
#2 = APPLICATION_CONTEXT(
  'core data for automotive mechanical design processes');
#3 = SHAPE_DEFINITION_REPRESENTATION(#4,#10);
#4 = PRODUCT_DEFINITION_SHAPE('','',#5);
#5 = PRODUCT_DEFINITION('design','',#6,#9);
#6 = PRODUCT_DEFINITION_FORMATION('','',#7);
#7 = PRODUCT('Open CASCADE STEP translator 7.7 1',
  'Open CASCADE STEP translator 7.7 1','',(#8));
#8 = PRODUCT_CONTEXT('',#2,'mechanical');
#9 = PRODUCT_DEFINITION_CONTEXT('part definition',#2,'design');
#10 = ADVANCED_BREP_SHAPE_REPRESENTATION('',(#11,#15),#809);
#11 = AXIS2_PLACEMENT_3D('',#12,#13,#14);
#12 = CARTESIAN_POINT('',(0.E+000,0.E+000,0.E+000));
#13 = DIRECTION('',(0.E+000,0.E+000,1.));
#14 = DIRECTION('',(1.,0.E+000,-0.E+000));
#15 = MANIFOLD_SOLID_BREP('',#16);
#16 = CLOSED_SHELL('',(#17,#189,#264,#342,#391,#438,#683,#724,#801));
#17 = ADVANCED_FACE('',(#18),#32,.F.);
#18 = FACE_BOUND('',#19,.F.);
#19 = EDGE_LOOP('',(#20,#55,#81,#107,#135,#163));
#20 = ORIENTED_EDGE('',*,*,#21,.F.);
#21 = EDGE_CURVE('',#22,#24,#26,.T.);
#22 = VERTEX_POINT('',#23);
#23 = CARTESIAN_POINT('',(0.E+000,0.E+000,55.270548401557));
#24 = VERTEX_POINT('',#25);
#25 = CARTESIAN_POINT('',(0.E+000,0.E+000,100.));
#26 = SURFACE_CURVE('',#27,(#31,#43),.PCURVE_S1.);
#27 = LINE('',#28,#29);
#28 = CARTESIAN_POINT('',(0.E+000,0.E+000,0.E+000));
#29 = VECTOR('',#30,1.);
#30 = DIRECTION('',(0.E+000,0.E+000,1.));
#31 = PCURVE('',#32,#37);
#32 = PLANE('',#33);
#33 = AXIS2_PLACEMENT_3D('',#34,#35,#36);
#34 = CARTESIAN_POINT('',(0.E+000,0.E+000,0.E+000));
#35 = DIRECTION('',(1.,0.E+000,-0.E+000));
#36 = DIRECTION('',(0.E+000,0.E+000,1.));
#37 = DEFINITIONAL_REPRESENTATION('',(#38),#42);
#38 = LINE('',#39,#40);
#39 = CARTESIAN_POINT('',(0.E+000,0.E+000));
#40 = VECTOR('',#41,1.);
#41 = DIRECTION('',(1.,0.E+000));
#42 = ( GEOMETRIC_REPRESENTATION_CONTEXT(2) 
PARAMETRIC_REPRESENTATION_CONTEXT() REPRESENTATION_CONTEXT('2D SPACE',''
  ) );
#43 = PCURVE('',#44,#49);
#44 = PLANE('',#45);
#45 = AXIS2_PLACEMENT_3D('',#46,#47,#48);
#46 = CARTESIAN_POINT('',(0.E+000,0.E+000,0.E+000));
#47 = DIRECTION('',(-0.E+000,1.,0.E+000));
#48 = DIRECTION('',(0.E+000,0.E+000,1.));
#49 = DEFINITIONAL_REPRESENTATION('',(#50),#54);
#50 = LINE('',#51,#52);
#51 = CARTESIAN_POINT('',(0.E+000,0.E+000));
#52 = VECTOR('',#53,1.);
#53 = DIRECTION('',(1.,0.E+000));
#54 = ( GEOMETRIC_REPRESENTATION_CONTEXT(2) 
PARAMETRIC_REPRESENTATION_CONTEXT() REPRESENTATION_CONTEXT('2D SPACE',''
  ) );
#55 = ORIENTED_EDGE('',*,*,#56,.F.);
#56 = EDGE_CURVE('',#57,#22,#59,.T.);
#57 = VERTEX_POINT('',#58);
#58 = CARTESIAN_POINT('',(0.E+000,28.015698087222,22.477787777821));
#59 = SURFACE_CURVE('',#60,(#64,#70),.PCURVE_S1.);
#60 = LINE('',#61,#62);
#61 = CARTESIAN_POINT('',(0.E+000,27.655979935699,22.898842830534));
#62 = VECTOR('',#63,1.);
#63 = DIRECTION('',(0.E+000,-0.649555755556,0.760313961744));
#64 = PCURVE('',#32,#65);
#65 = DEFINITIONAL_REPRESENTATION('',(#66),#69);
#66 = B_SPLINE_CURVE_WITH_KNOTS('',1,(#67,#68),.UNSPECIFIED.,.F.,.F.,(2,
    2),(-0.55379103094,42.576760653916),.PIECEWISE_BEZIER_KNOTS.);
#67 = CARTESIAN_POINT('',(22.477787777821,-28.01569808722));
#68 = CARTESIAN_POINT('',(55.270548401557,3.552713678801E-015));
#69 = ( GEOMETRIC_REPRESENTATION_CONTEXT(2) 
PARAMETRIC_REPRESENTATION_CONTEXT() REPRESENTATION_CONTEXT('2D SPACE',''
  ) );
#70 = PCURVE('',#71,#76);
#71 = PLANE('',#72);
#72 = AXIS2_PLACEMENT_3D('',#73,#74,#75);
#73 = CARTESIAN_POINT('',(-10.,28.015698087222,22.477787777821));
#74 = DIRECTION('',(0.E+000,0.760313961744,0.649555755556));
#75 = DIRECTION('',(0.E+000,-0.649555755556,0.760313961744));
#76 = DEFINITIONAL_REPRESENTATION('',(#77),#80);
#77 = B_SPLINE_CURVE_WITH_KNOTS('',1,(#78,#79),.UNSPECIFIED.,.F.,.F.,(2,
    2),(-0.55379103094,42.576760653916),.PIECEWISE_BEZIER_KNOTS.);
#78 = CARTESIAN_POINT('',(0.E+000,10.));
#79 = CARTESIAN_POINT('',(43.130551684856,10.));
#80 = ( GEOMETRIC_REPRESENTATION_CONTEXT(2) 
PARAMETRIC_REPRESENTATION_CONTEXT() REPRESENTATION_CONTEXT('2D SPACE',''
  ) );
#81 = ORIENTED_EDGE('',*,*,#82,.T.);
#82 = EDGE_CURVE('',#57,#83,#85,.T.);
#83 = VERTEX_POINT('',#84);
#84 = CARTESIAN_POINT('',(0.E+000,1.70513778441,0.E+000));
#85 = SURFACE_CURVE('',#86,(#90,#96),.PCURVE_S1.);
#86 = LINE('',#87,#88);
#87 = CARTESIAN_POINT('',(0.E+000,-4.640281848477,-5.421055052713));
#88 = VECTOR('',#89,1.);
#89 = DIRECTION('',(0.E+000,-0.760313961744,-0.649555755556));
#90 = PCURVE('',#32,#91);
#91 = DEFINITIONAL_REPRESENTATION('',(#92),#95);
#92 = B_SPLINE_CURVE_WITH_KNOTS('',1,(#93,#94),.UNSPECIFIED.,.F.,.F.,(2,
    2),(-42.95065141349,-8.345788650689),.PIECEWISE_BEZIER_KNOTS.);
#93 = CARTESIAN_POINT('',(22.477787777821,-28.01569808722));
#94 = CARTESIAN_POINT('',(0.E+000,-1.70513778441));
#95 = ( GEOMETRIC_REPRESENTATION_CONTEXT(2) 
PARAMETRIC_REPRESENTATION_CONTEXT() REPRESENTATION_CONTEXT('2D SPACE',''
  ) );
#96 = PCURVE('',#97,#102);
#97 = PLANE('',#98);
#98 = AXIS2_PLACEMENT_3D('',#99,#100,#101);
#99 = CARTESIAN_POINT('',(-10.,-10.,-10.));
#100 = DIRECTION('',(0.E+000,-0.649555755556,0.760313961744));
#101 = DIRECTION('',(1.,0.E+000,0.E+000));
#102 = DEFINITIONAL_REPRESENTATION('',(#103),#106);
#103 = B_SPLINE_CURVE_WITH_KNOTS('',1,(#104,#105),.UNSPECIFIED.,.F.,.F.,
  (2,2),(-42.95065141349,-8.345788650689),.PIECEWISE_BEZIER_KNOTS.);
#104 = CARTESIAN_POINT('',(10.,50.));
#105 = CARTESIAN_POINT('',(10.,15.395137237193));
#106 = ( GEOMETRIC_REPRESENTATION_CONTEXT(2) 
PARAMETRIC_REPRESENTATION_CONTEXT() REPRESENTATION_CONTEXT('2D SPACE',''
  ) );
#107 = ORIENTED_EDGE('',*,*,#108,.T.);
#108 = EDGE_CURVE('',#83,#109,#111,.T.);
#109 = VERTEX_POINT('',#110);
#110 = CARTESIAN_POINT('',(0.E+000,100.,0.E+000));
#111 = SURFACE_CURVE('',#112,(#116,#123),.PCURVE_S1.);
#112 = LINE('',#113,#114);
#113 = CARTESIAN_POINT('',(0.E+000,0.E+000,0.E+000));
#114 = VECTOR('',#115,1.);
#115 = DIRECTION('',(-0.E+000,1.,0.E+000));
#116 = PCURVE('',#32,#117);
#117 = DEFINITIONAL_REPRESENTATION('',(#118),#122);
#118 = LINE('',#119,#120);
#119 = CARTESIAN_POINT('',(0.E+000,0.E+000));
#120 = VECTOR('',#121,1.);
#121 = DIRECTION('',(0.E+000,-1.));
#122 = ( GEOMETRIC_REPRESENTATION_CONTEXT(2) 
PARAMETRIC_REPRESENTATION_CONTEXT() REPRESENTATION_CONTEXT('2D SPACE',''
  ) );
#123 = PCURVE('',#124,#129);
#124 = PLANE('',#125);
#125 = AXIS2_PLACEMENT_3D('',#126,#127,#128);
#126 = CARTESIAN_POINT('',(0.E+000,0.E+000,0.E+000));
#127 = DIRECTION('',(0.E+000,0.E+000,1.));
#128 = DIRECTION('',(1.,0.E+000,-0.E+000));
#129 = DEFINITIONAL_REPRESENTATION('',(#130),#134);
#130 = LINE('',#131,#132);
#131 = CARTESIAN_POINT('',(0.E+000,0.E+000));
#132 = VECTOR('',#133,1.);
#133 = DIRECTION('',(0.E+000,1.));
#134 = ( GEOMETRIC_REPRESENTATION_CONTEXT(2) 
PARAMETRIC_REPRESENTATION_CONTEXT() REPRESENTATION_CONTEXT('2D SPACE',''
  ) );
#135 = ORIENTED_EDGE('',*,*,#136,.T.);
#136 = EDGE_CURVE('',#109,#137,#139,.T.);
#137 = VERTEX_POINT('',#138);
#138 = CARTESIAN_POINT('',(0.E+000,100.,100.));
#139 = SURFACE_CURVE('',#140,(#144,#151),.PCURVE_S1.);
#140 = LINE('',#141,#142);
#141 = CARTESIAN_POINT('',(0.E+000,100.,0.E+000));
#142 = VECTOR('',#143,1.);
#143 = DIRECTION('',(0.E+000,0.E+000,1.));
#144 = PCURVE('',#32,#145);
#145 = DEFINITIONAL_REPRESENTATION('',(#146),#150);
#146 = LINE('',#147,#148);
#147 = CARTESIAN_POINT('',(0.E+000,-100.));
#148 = VECTOR('',#149,1.);
#149 = DIRECTION('',(1.,0.E+000));
#150 = ( GEOMETRIC_REPRESENTATION_CONTEXT(2) 
PARAMETRIC_REPRESENTATION_CONTEXT() REPRESENTATION_CONTEXT('2D SPACE',''
  ) );
#151 = PCURVE('',#152,#157);
#152 = PLANE('',#153);
#153 = AXIS2_PLACEMENT_3D('',#154,#155,#156);
#154 = CARTESIAN_POINT('',(0.E+000,100.,0.E+000));
#155 = DIRECTION('',(-0.E+000,1.,0.E+000));
#156 = DIRECTION('',(0.E+000,0.E+000,1.));
#157 = DEFINITIONAL_REPRESENTATION('',(#158),#162);
#158 = LINE('',#159,#160);
#159 = CARTESIAN_POINT('',(0.E+000,0.E+000));
#160 = VECTOR('',#161,1.);
#161 = DIRECTION('',(1.,0.E+000));
#162 = ( GEOMETRIC_REPRESENTATION_CONTEXT(2) 
PARAMETRIC_REPRESENTATION_CONTEXT() REPRESENTATION_CONTEXT('2D SPACE',''
  ) );
#163 = ORIENTED_EDGE('',*,*,#164,.F.);
#164 = EDGE_CURVE('',#24,#137,#165,.T.);
#165 = SURFACE_CURVE('',#166,(#170,#177),.PCURVE_S1.);
#166 = LINE('',#167,#168);
#167 = CARTESIAN_POINT('',(0.E+000,0.E+000,100.));
#168 = VECTOR('',#169,1.);
#169 = DIRECTION('',(-0.E+000,1.,0.E+000));
#170 = PCURVE('',#32,#171);
#171 = DEFINITIONAL_REPRESENTATION('',(#172),#176);
#172 = LINE('',#173,#174);
#173 = CARTESIAN_POINT('',(100.,0.E+000));
#174 = VECTOR('',#175,1.);
#175 = DIRECTION('',(0.E+000,-1.));
#176 = ( GEOMETRIC_REPRESENTATION_CONTEXT(2) 
PARAMETRIC_REPRESENTATION_CONTEXT() REPRESENTATION_CONTEXT('2D SPACE',''
  ) );
#177 = PCURVE('',#178,#183);
#178 = PLANE('',#179);
#179 = AXIS2_PLACEMENT_3D('',#180,#181,#182);
#180 = CARTESIAN_POINT('',(0.E+000,0.E+000,100.));
#181 = DIRECTION('',(0.E+000,0.E+000,1.));
#182 = DIRECTION('',(1.,0.E+000,-0.E+000));
#183 = DEFINITIONAL_REPRESENTATION('',(#184),#188);
#184 = LINE('',#185,#186);
#185 = CARTESIAN_POINT('',(0.E+000,0.E+000));
#186 = VECTOR('',#187,1.);
#187 = DIRECTION('',(0.E+000,1.));
#188 = ( GEOMETRIC_REPRESENTATION_CONTEXT(2) 
PARAMETRIC_REPRESENTATION_CONTEXT() REPRESENTATION_CONTEXT('2D SPACE',''
  ) );
#189 = ADVANCED_FACE('',(#190),#44,.F.);
#190 = FACE_BOUND('',#191,.F.);
#191 = EDGE_LOOP('',(#192,#213,#214,#237));
#192 = ORIENTED_EDGE('',*,*,#193,.F.);
#193 = EDGE_CURVE('',#22,#194,#196,.T.);
#194 = VERTEX_POINT('',#195);
#195 = CARTESIAN_POINT('',(52.64152613809,-1.036208156317E-013,
    55.270548401558));
#196 = SURFACE_CURVE('',#197,(#201,#207),.PCURVE_S1.);
#197 = LINE('',#198,#199);
#198 = CARTESIAN_POINT('',(-5.,0.E+000,55.270548401557));
#199 = VECTOR('',#200,1.);
#200 = DIRECTION('',(1.,0.E+000,-0.E+000));
#201 = PCURVE('',#44,#202);
#202 = DEFINITIONAL_REPRESENTATION('',(#203),#206);
#203 = B_SPLINE_CURVE_WITH_KNOTS('',1,(#204,#205),.UNSPECIFIED.,.F.,.F.,
  (2,2),(5.,105.),.PIECEWISE_BEZIER_KNOTS.);
#204 = CARTESIAN_POINT('',(55.270548401557,0.E+000));
#205 = CARTESIAN_POINT('',(55.270548401557,100.));
#206 = ( GEOMETRIC_REPRESENTATION_CONTEXT(2) 
PARAMETRIC_REPRESENTATION_CONTEXT() REPRESENTATION_CONTEXT('2D SPACE',''
  ) );
#207 = PCURVE('',#71,#208);
#208 = DEFINITIONAL_REPRESENTATION('',(#209),#212);
#209 = B_SPLINE_CURVE_WITH_KNOTS('',1,(#210,#211),.UNSPECIFIED.,.F.,.F.,
  (2,2),(5.,105.),.PIECEWISE_BEZIER_KNOTS.);
#210 = CARTESIAN_POINT('',(43.130551684856,10.));
#211 = CARTESIAN_POINT('',(43.130551684856,110.));
#212 = ( GEOMETRIC_REPRESENTATION_CONTEXT(2) 
PARAMETRIC_REPRESENTATION_CONTEXT() REPRESENTATION_CONTEXT('2D SPACE',''
  ) );
#213 = ORIENTED_EDGE('',*,*,#21,.T.);
#214 = ORIENTED_EDGE('',*,*,#215,.T.);
#215 = EDGE_CURVE('',#24,#216,#218,.T.);
#216 = VERTEX_POINT('',#217);
#217 = CARTESIAN_POINT('',(54.289321881345,0.E+000,100.));
#218 = SURFACE_CURVE('',#219,(#223,#230),.PCURVE_S1.);
#219 = LINE('',#220,#221);
#220 = CARTESIAN_POINT('',(0.E+000,0.E+000,100.));
#221 = VECTOR('',#222,1.);
#222 = DIRECTION('',(1.,0.E+000,-0.E+000));
#223 = PCURVE('',#44,#224);
#224 = DEFINITIONAL_REPRESENTATION('',(#225),#229);
#225 = LINE('',#226,#227);
#226 = CARTESIAN_POINT('',(100.,0.E+000));
#227 = VECTOR('',#228,1.);
#228 = DIRECTION('',(0.E+000,1.));
#229 = ( GEOMETRIC_REPRESENTATION_CONTEXT(2) 
PARAMETRIC_REPRESENTATION_CONTEXT() REPRESENTATION_CONTEXT('2D SPACE',''
  ) );
#230 = PCURVE('',#178,#231);
#231 = DEFINITIONAL_REPRESENTATION('',(#232),#236);
#232 = LINE('',#233,#234);
#233 = CARTESIAN_POINT('',(0.E+000,0.E+000));
#234 = VECTOR('',#235,1.);
#235 = DIRECTION('',(1.,0.E+000));
#236 = ( GEOMETRIC_REPRESENTATION_CONTEXT(2) 
PARAMETRIC_REPRESENTATION_CONTEXT() REPRESENTATION_CONTEXT('2D SPACE',''
  ) );
#237 = ORIENTED_EDGE('',*,*,#238,.F.);
#238 = EDGE_CURVE('',#194,#216,#239,.T.);
#239 = SURFACE_CURVE('',#240,(#245,#252),.PCURVE_S1.);
#240 = CIRCLE('',#241,75.);
#241 = AXIS2_PLACEMENT_3D('',#242,#243,#244);
#242 = CARTESIAN_POINT('',(125.,0.E+000,75.));
#243 = DIRECTION('',(-0.E+000,1.,0.E+000));
#244 = DIRECTION('',(0.E+000,0.E+000,1.));
#245 = PCURVE('',#44,#246);
#246 = DEFINITIONAL_REPRESENTATION('',(#247),#251);
#247 = CIRCLE('',#248,75.);
#248 = AXIS2_PLACEMENT_2D('',#249,#250);
#249 = CARTESIAN_POINT('',(75.,125.));
#250 = DIRECTION('',(1.,0.E+000));
#251 = ( GEOMETRIC_REPRESENTATION_CONTEXT(2) 
PARAMETRIC_REPRESENTATION_CONTEXT() REPRESENTATION_CONTEXT('2D SPACE',''
  ) );
#252 = PCURVE('',#253,#258);
#253 = SPHERICAL_SURFACE('',#254,75.);
#254 = AXIS2_PLACEMENT_3D('',#255,#256,#257);
#255 = CARTESIAN_POINT('',(125.,0.E+000,75.));
#256 = DIRECTION('',(0.E+000,0.E+000,1.));
#257 = DIRECTION('',(1.,0.E+000,-0.E+000));
#258 = DEFINITIONAL_REPRESENTATION('',(#259),#263);
#259 = LINE('',#260,#261);
#260 = CARTESIAN_POINT('',(3.14159265359,-4.712388980385));
#261 = VECTOR('',#262,1.);
#262 = DIRECTION('',(-0.E+000,1.));
#263 = ( GEOMETRIC_REPRESENTATION_CONTEXT(2) 
PARAMETRIC_REPRESENTATION_CONTEXT() REPRESENTATION_CONTEXT('2D SPACE',''
  ) );
#264 = ADVANCED_FACE('',(#265),#178,.T.);
#265 = FACE_BOUND('',#266,.T.);
#266 = EDGE_LOOP('',(#267,#290,#291,#292,#316));
#267 = ORIENTED_EDGE('',*,*,#268,.F.);
#268 = EDGE_CURVE('',#137,#269,#271,.T.);
#269 = VERTEX_POINT('',#270);
#270 = CARTESIAN_POINT('',(100.,100.,100.));
#271 = SURFACE_CURVE('',#272,(#276,#283),.PCURVE_S1.);
#272 = LINE('',#273,#274);
#273 = CARTESIAN_POINT('',(0.E+000,100.,100.));
#274 = VECTOR('',#275,1.);
#275 = DIRECTION('',(1.,0.E+000,-0.E+000));
#276 = PCURVE('',#178,#277);
#277 = DEFINITIONAL_REPRESENTATION('',(#278),#282);
#278 = LINE('',#279,#280);
#279 = CARTESIAN_POINT('',(0.E+000,100.));
#280 = VECTOR('',#281,1.);
#281 = DIRECTION('',(1.,0.E+000));
#282 = ( GEOMETRIC_REPRESENTATION_CONTEXT(2) 
PARAMETRIC_REPRESENTATION_CONTEXT() REPRESENTATION_CONTEXT('2D SPACE',''
  ) );
#283 = PCURVE('',#152,#284);
#284 = DEFINITIONAL_REPRESENTATION('',(#285),#289);
#285 = LINE('',#286,#287);
#286 = CARTESIAN_POINT('',(100.,0.E+000));
#287 = VECTOR('',#288,1.);
#288 = DIRECTION('',(0.E+000,1.));
#289 = ( GEOMETRIC_REPRESENTATION_CONTEXT(2) 
PARAMETRIC_REPRESENTATION_CONTEXT() REPRESENTATION_CONTEXT('2D SPACE',''
  ) );
#290 = ORIENTED_EDGE('',*,*,#164,.F.);
#291 = ORIENTED_EDGE('',*,*,#215,.T.);
#292 = ORIENTED_EDGE('',*,*,#293,.F.);
#293 = EDGE_CURVE('',#294,#216,#296,.T.);
#294 = VERTEX_POINT('',#295);
#295 = CARTESIAN_POINT('',(100.,66.143782776615,100.));
#296 = SURFACE_CURVE('',#297,(#302,#309),.PCURVE_S1.);
#297 = CIRCLE('',#298,70.710678118655);
#298 = AXIS2_PLACEMENT_3D('',#299,#300,#301);
#299 = CARTESIAN_POINT('',(125.,0.E+000,100.));
#300 = DIRECTION('',(0.E+000,0.E+000,1.));
#301 = DIRECTION('',(1.,0.E+000,-0.E+000));
#302 = PCURVE('',#178,#303);
#303 = DEFINITIONAL_REPRESENTATION('',(#304),#308);
#304 = CIRCLE('',#305,70.710678118655);
#305 = AXIS2_PLACEMENT_2D('',#306,#307);
#306 = CARTESIAN_POINT('',(125.,0.E+000));
#307 = DIRECTION('',(1.,0.E+000));
#308 = ( GEOMETRIC_REPRESENTATION_CONTEXT(2) 
PARAMETRIC_REPRESENTATION_CONTEXT() REPRESENTATION_CONTEXT('2D SPACE',''
  ) );
#309 = PCURVE('',#253,#310);
#310 = DEFINITIONAL_REPRESENTATION('',(#311),#315);
#311 = LINE('',#312,#313);
#312 = CARTESIAN_POINT('',(0.E+000,0.339836909454));
#313 = VECTOR('',#314,1.);
#314 = DIRECTION('',(1.,0.E+000));
#315 = ( GEOMETRIC_REPRESENTATION_CONTEXT(2) 
PARAMETRIC_REPRESENTATION_CONTEXT() REPRESENTATION_CONTEXT('2D SPACE',''
  ) );
#316 = ORIENTED_EDGE('',*,*,#317,.T.);
#317 = EDGE_CURVE('',#294,#269,#318,.T.);
#318 = SURFACE_CURVE('',#319,(#323,#330),.PCURVE_S1.);
#319 = LINE('',#320,#321);
#320 = CARTESIAN_POINT('',(100.,0.E+000,100.));
#321 = VECTOR('',#322,1.);
#322 = DIRECTION('',(-0.E+000,1.,0.E+000));
#323 = PCURVE('',#178,#324);
#324 = DEFINITIONAL_REPRESENTATION('',(#325),#329);
#325 = LINE('',#326,#327);
#326 = CARTESIAN_POINT('',(100.,0.E+000));
#327 = VECTOR('',#328,1.);
#328 = DIRECTION('',(0.E+000,1.));
#329 = ( GEOMETRIC_REPRESENTATION_CONTEXT(2) 
PARAMETRIC_REPRESENTATION_CONTEXT() REPRESENTATION_CONTEXT('2D SPACE',''
  ) );
#330 = PCURVE('',#331,#336);
#331 = PLANE('',#332);
#332 = AXIS2_PLACEMENT_3D('',#333,#334,#335);
#333 = CARTESIAN_POINT('',(100.,0.E+000,0.E+000));
#334 = DIRECTION('',(1.,0.E+000,-0.E+000));
#335 = DIRECTION('',(0.E+000,0.E+000,1.));
#336 = DEFINITIONAL_REPRESENTATION('',(#337),#341);
#337 = LINE('',#338,#339);
#338 = CARTESIAN_POINT('',(100.,0.E+000));
#339 = VECTOR('',#340,1.);
#340 = DIRECTION('',(0.E+000,-1.));
#341 = ( GEOMETRIC_REPRESENTATION_CONTEXT(2) 
PARAMETRIC_REPRESENTATION_CONTEXT() REPRESENTATION_CONTEXT('2D SPACE',''
  ) );
#342 = ADVANCED_FACE('',(#343),#152,.T.);
#343 = FACE_BOUND('',#344,.T.);
#344 = EDGE_LOOP('',(#345,#368,#369,#370));
#345 = ORIENTED_EDGE('',*,*,#346,.F.);
#346 = EDGE_CURVE('',#109,#347,#349,.T.);
#347 = VERTEX_POINT('',#348);
#348 = CARTESIAN_POINT('',(100.,100.,0.E+000));
#349 = SURFACE_CURVE('',#350,(#354,#361),.PCURVE_S1.);
#350 = LINE('',#351,#352);
#351 = CARTESIAN_POINT('',(0.E+000,100.,0.E+000));
#352 = VECTOR('',#353,1.);
#353 = DIRECTION('',(1.,0.E+000,-0.E+000));
#354 = PCURVE('',#152,#355);
#355 = DEFINITIONAL_REPRESENTATION('',(#356),#360);
#356 = LINE('',#357,#358);
#357 = CARTESIAN_POINT('',(0.E+000,0.E+000));
#358 = VECTOR('',#359,1.);
#359 = DIRECTION('',(0.E+000,1.));
#360 = ( GEOMETRIC_REPRESENTATION_CONTEXT(2) 
PARAMETRIC_REPRESENTATION_CONTEXT() REPRESENTATION_CONTEXT('2D SPACE',''
  ) );
#361 = PCURVE('',#124,#362);
#362 = DEFINITIONAL_REPRESENTATION('',(#363),#367);
#363 = LINE('',#364,#365);
#364 = CARTESIAN_POINT('',(0.E+000,100.));
#365 = VECTOR('',#366,1.);
#366 = DIRECTION('',(1.,0.E+000));
#367 = ( GEOMETRIC_REPRESENTATION_CONTEXT(2) 
PARAMETRIC_REPRESENTATION_CONTEXT() REPRESENTATION_CONTEXT('2D SPACE',''
  ) );
#368 = ORIENTED_EDGE('',*,*,#136,.T.);
#369 = ORIENTED_EDGE('',*,*,#268,.T.);
#370 = ORIENTED_EDGE('',*,*,#371,.F.);
#371 = EDGE_CURVE('',#347,#269,#372,.T.);
#372 = SURFACE_CURVE('',#373,(#377,#384),.PCURVE_S1.);
#373 = LINE('',#374,#375);
#374 = CARTESIAN_POINT('',(100.,100.,0.E+000));
#375 = VECTOR('',#376,1.);
#376 = DIRECTION('',(0.E+000,0.E+000,1.));
#377 = PCURVE('',#152,#378);
#378 = DEFINITIONAL_REPRESENTATION('',(#379),#383);
#379 = LINE('',#380,#381);
#380 = CARTESIAN_POINT('',(0.E+000,100.));
#381 = VECTOR('',#382,1.);
#382 = DIRECTION('',(1.,0.E+000));
#383 = ( GEOMETRIC_REPRESENTATION_CONTEXT(2) 
PARAMETRIC_REPRESENTATION_CONTEXT() REPRESENTATION_CONTEXT('2D SPACE',''
  ) );
#384 = PCURVE('',#331,#385);
#385 = DEFINITIONAL_REPRESENTATION('',(#386),#390);
#386 = LINE('',#387,#388);
#387 = CARTESIAN_POINT('',(0.E+000,-100.));
#388 = VECTOR('',#389,1.);
#389 = DIRECTION('',(1.,0.E+000));
#390 = ( GEOMETRIC_REPRESENTATION_CONTEXT(2) 
PARAMETRIC_REPRESENTATION_CONTEXT() REPRESENTATION_CONTEXT('2D SPACE',''
  ) );
#391 = ADVANCED_FACE('',(#392),#124,.F.);
#392 = FACE_BOUND('',#393,.F.);
#393 = EDGE_LOOP('',(#394,#395,#416,#437));
#394 = ORIENTED_EDGE('',*,*,#108,.F.);
#395 = ORIENTED_EDGE('',*,*,#396,.T.);
#396 = EDGE_CURVE('',#83,#397,#399,.T.);
#397 = VERTEX_POINT('',#398);
#398 = CARTESIAN_POINT('',(100.,1.70513778441,0.E+000));
#399 = SURFACE_CURVE('',#400,(#404,#410),.PCURVE_S1.);
#400 = LINE('',#401,#402);
#401 = CARTESIAN_POINT('',(-5.,1.70513778441,0.E+000));
#402 = VECTOR('',#403,1.);
#403 = DIRECTION('',(1.,0.E+000,-0.E+000));
#404 = PCURVE('',#124,#405);
#405 = DEFINITIONAL_REPRESENTATION('',(#406),#409);
#406 = B_SPLINE_CURVE_WITH_KNOTS('',1,(#407,#408),.UNSPECIFIED.,.F.,.F.,
  (2,2),(5.,105.),.PIECEWISE_BEZIER_KNOTS.);
#407 = CARTESIAN_POINT('',(0.E+000,1.70513778441));
#408 = CARTESIAN_POINT('',(100.,1.70513778441));
#409 = ( GEOMETRIC_REPRESENTATION_CONTEXT(2) 
PARAMETRIC_REPRESENTATION_CONTEXT() REPRESENTATION_CONTEXT('2D SPACE',''
  ) );
#410 = PCURVE('',#97,#411);
#411 = DEFINITIONAL_REPRESENTATION('',(#412),#415);
#412 = B_SPLINE_CURVE_WITH_KNOTS('',1,(#413,#414),.UNSPECIFIED.,.F.,.F.,
  (2,2),(5.,105.),.PIECEWISE_BEZIER_KNOTS.);
#413 = CARTESIAN_POINT('',(10.,15.395137237193));
#414 = CARTESIAN_POINT('',(110.,15.395137237193));
#415 = ( GEOMETRIC_REPRESENTATION_CONTEXT(2) 
PARAMETRIC_REPRESENTATION_CONTEXT() REPRESENTATION_CONTEXT('2D SPACE',''
  ) );
#416 = ORIENTED_EDGE('',*,*,#417,.T.);
#417 = EDGE_CURVE('',#397,#347,#418,.T.);
#418 = SURFACE_CURVE('',#419,(#423,#430),.PCURVE_S1.);
#419 = LINE('',#420,#421);
#420 = CARTESIAN_POINT('',(100.,0.E+000,0.E+000));
#421 = VECTOR('',#422,1.);
#422 = DIRECTION('',(-0.E+000,1.,0.E+000));
#423 = PCURVE('',#124,#424);
#424 = DEFINITIONAL_REPRESENTATION('',(#425),#429);
#425 = LINE('',#426,#427);
#426 = CARTESIAN_POINT('',(100.,0.E+000));
#427 = VECTOR('',#428,1.);
#428 = DIRECTION('',(0.E+000,1.));
#429 = ( GEOMETRIC_REPRESENTATION_CONTEXT(2) 
PARAMETRIC_REPRESENTATION_CONTEXT() REPRESENTATION_CONTEXT('2D SPACE',''
  ) );
#430 = PCURVE('',#331,#431);
#431 = DEFINITIONAL_REPRESENTATION('',(#432),#436);
#432 = LINE('',#433,#434);
#433 = CARTESIAN_POINT('',(0.E+000,0.E+000));
#434 = VECTOR('',#435,1.);
#435 = DIRECTION('',(0.E+000,-1.));
#436 = ( GEOMETRIC_REPRESENTATION_CONTEXT(2) 
PARAMETRIC_REPRESENTATION_CONTEXT() REPRESENTATION_CONTEXT('2D SPACE',''
  ) );
#437 = ORIENTED_EDGE('',*,*,#346,.F.);
#438 = ADVANCED_FACE('',(#439),#97,.T.);
#439 = FACE_BOUND('',#440,.T.);
#440 = EDGE_LOOP('',(#441,#464,#465,#466,#487));
#441 = ORIENTED_EDGE('',*,*,#442,.F.);
#442 = EDGE_CURVE('',#57,#443,#445,.T.);
#443 = VERTEX_POINT('',#444);
#444 = CARTESIAN_POINT('',(79.376125942945,28.015698087222,
    22.477787777821));
#445 = SURFACE_CURVE('',#446,(#450,#457),.PCURVE_S1.);
#446 = LINE('',#447,#448);
#447 = CARTESIAN_POINT('',(-10.,28.015698087222,22.477787777821));
#448 = VECTOR('',#449,1.);
#449 = DIRECTION('',(1.,0.E+000,0.E+000));
#450 = PCURVE('',#97,#451);
#451 = DEFINITIONAL_REPRESENTATION('',(#452),#456);
#452 = LINE('',#453,#454);
#453 = CARTESIAN_POINT('',(0.E+000,50.));
#454 = VECTOR('',#455,1.);
#455 = DIRECTION('',(1.,0.E+000));
#456 = ( GEOMETRIC_REPRESENTATION_CONTEXT(2) 
PARAMETRIC_REPRESENTATION_CONTEXT() REPRESENTATION_CONTEXT('2D SPACE',''
  ) );
#457 = PCURVE('',#71,#458);
#458 = DEFINITIONAL_REPRESENTATION('',(#459),#463);
#459 = LINE('',#460,#461);
#460 = CARTESIAN_POINT('',(0.E+000,0.E+000));
#461 = VECTOR('',#462,1.);
#462 = DIRECTION('',(0.E+000,1.));
#463 = ( GEOMETRIC_REPRESENTATION_CONTEXT(2) 
PARAMETRIC_REPRESENTATION_CONTEXT() REPRESENTATION_CONTEXT('2D SPACE',''
  ) );
#464 = ORIENTED_EDGE('',*,*,#82,.T.);
#465 = ORIENTED_EDGE('',*,*,#396,.T.);
#466 = ORIENTED_EDGE('',*,*,#467,.F.);
#467 = EDGE_CURVE('',#468,#397,#470,.T.);
#468 = VERTEX_POINT('',#469);
#469 = CARTESIAN_POINT('',(100.,7.150073876414,4.651748823714));
#470 = SURFACE_CURVE('',#471,(#475,#481),.PCURVE_S1.);
#471 = LINE('',#472,#473);
#472 = CARTESIAN_POINT('',(100.,-4.640281848477,-5.421055052713));
#473 = VECTOR('',#474,1.);
#474 = DIRECTION('',(0.E+000,-0.760313961744,-0.649555755556));
#475 = PCURVE('',#97,#476);
#476 = DEFINITIONAL_REPRESENTATION('',(#477),#480);
#477 = B_SPLINE_CURVE_WITH_KNOTS('',1,(#478,#479),.UNSPECIFIED.,.F.,.F.,
  (2,2),(-42.95065141349,-8.345788650689),.PIECEWISE_BEZIER_KNOTS.);
#478 = CARTESIAN_POINT('',(110.,50.));
#479 = CARTESIAN_POINT('',(110.,15.395137237193));
#480 = ( GEOMETRIC_REPRESENTATION_CONTEXT(2) 
PARAMETRIC_REPRESENTATION_CONTEXT() REPRESENTATION_CONTEXT('2D SPACE',''
  ) );
#481 = PCURVE('',#331,#482);
#482 = DEFINITIONAL_REPRESENTATION('',(#483),#486);
#483 = B_SPLINE_CURVE_WITH_KNOTS('',1,(#484,#485),.UNSPECIFIED.,.F.,.F.,
  (2,2),(-42.95065141349,-8.345788650689),.PIECEWISE_BEZIER_KNOTS.);
#484 = CARTESIAN_POINT('',(22.477787777821,-28.01569808722));
#485 = CARTESIAN_POINT('',(0.E+000,-1.70513778441));
#486 = ( GEOMETRIC_REPRESENTATION_CONTEXT(2) 
PARAMETRIC_REPRESENTATION_CONTEXT() REPRESENTATION_CONTEXT('2D SPACE',''
  ) );
#487 = ORIENTED_EDGE('',*,*,#488,.F.);
#488 = EDGE_CURVE('',#443,#468,#489,.T.);
#489 = SURFACE_CURVE('',#490,(#495,#502),.PCURVE_S1.);
#490 = CIRCLE('',#491,47.389575001049);
#491 = AXIS2_PLACEMENT_3D('',#492,#493,#494);
#492 = CARTESIAN_POINT('',(125.,37.759409544121,30.80209086281));
#493 = DIRECTION('',(0.E+000,-0.649555755556,0.760313961744));
#494 = DIRECTION('',(0.E+000,-0.760313961744,-0.649555755556));
#495 = PCURVE('',#97,#496);
#496 = DEFINITIONAL_REPRESENTATION('',(#497),#501);
#497 = CIRCLE('',#498,47.389575001049);
#498 = AXIS2_PLACEMENT_2D('',#499,#500);
#499 = CARTESIAN_POINT('',(135.,62.81537883974));
#500 = DIRECTION('',(0.E+000,-1.));
#501 = ( GEOMETRIC_REPRESENTATION_CONTEXT(2) 
PARAMETRIC_REPRESENTATION_CONTEXT() REPRESENTATION_CONTEXT('2D SPACE',''
  ) );
#502 = PCURVE('',#253,#503);
#503 = DEFINITIONAL_REPRESENTATION('',(#504),#682);
#504 = B_SPLINE_CURVE_WITH_KNOTS('',8,(#505,#506,#507,#508,#509,#510,
    #511,#512,#513,#514,#515,#516,#517,#518,#519,#520,#521,#522,#523,
    #524,#525,#526,#527,#528,#529,#530,#531,#532,#533,#534,#535,#536,
    #537,#538,#539,#540,#541,#542,#543,#544,#545,#546,#547,#548,#549,
    #550,#551,#552,#553,#554,#555,#556,#557,#558,#559,#560,#561,#562,
    #563,#564,#565,#566,#567,#568,#569,#570,#571,#572,#573,#574,#575,
    #576,#577,#578,#579,#580,#581,#582,#583,#584,#585,#586,#587,#588,
    #589,#590,#591,#592,#593,#594,#595,#596,#597,#598,#599,#600,#601,
    #602,#603,#604,#605,#606,#607,#608,#609,#610,#611,#612,#613,#614,
    #615,#616,#617,#618,#619,#620,#621,#622,#623,#624,#625,#626,#627,
    #628,#629,#630,#631,#632,#633,#634,#635,#636,#637,#638,#639,#640,
    #641,#642,#643,#644,#645,#646,#647,#648,#649,#650,#651,#652,#653,
    #654,#655,#656,#657,#658,#659,#660,#661,#662,#663,#664,#665,#666,
    #667,#668,#669,#670,#671,#672,#673,#674,#675,#676,#677,#678,#679,
    #680,#681),.UNSPECIFIED.,.F.,.F.,(9,7,7,7,7,7,7,7,7,7,7,7,7,7,7,7,7,
    7,7,7,7,7,7,7,7,9),(4.9862245945,5.31046477267,5.594174928569,
    5.84242131498,5.951029109035,6.052848915961,6.100576950458,
    6.146813483877,6.191605125626,6.213301077099,6.234658029329,
    6.255681279181,6.266028659968,6.286561743716,6.296667870874,
    6.316722216952,6.336463213872,6.355895757716,6.394153578408,
    6.431215842203,6.503023978306,6.570344105903,6.696569345148,
    6.917463513826,7.248804766843,7.580146019859),.UNSPECIFIED.);
#505 = CARTESIAN_POINT('',(2.590900571778,-0.775812292044));
#506 = CARTESIAN_POINT('',(2.608201664952,-0.798246757964));
#507 = CARTESIAN_POINT('',(2.625244793436,-0.8209536135));
#508 = CARTESIAN_POINT('',(2.642030121088,-0.843917887398));
#509 = CARTESIAN_POINT('',(2.658556506068,-0.86712507962));
#510 = CARTESIAN_POINT('',(2.674820846204,-0.890561142333));
#511 = CARTESIAN_POINT('',(2.690817441692,-0.914212452483));
#512 = CARTESIAN_POINT('',(2.706536728513,-0.938065771412));
#513 = CARTESIAN_POINT('',(2.735460492491,-0.98314530062));
#514 = CARTESIAN_POINT('',(2.748733714264,-1.004327191456));
#515 = CARTESIAN_POINT('',(2.761771636348,-1.025645208601));
#516 = CARTESIAN_POINT('',(2.774559920032,-1.047090894655));
#517 = CARTESIAN_POINT('',(2.787078665643,-1.068655947968));
#518 = CARTESIAN_POINT('',(2.799300940846,-1.090332189596));
#519 = CARTESIAN_POINT('',(2.811188720322,-1.112111499501));
#520 = CARTESIAN_POINT('',(2.832740743587,-1.153125600165));
#521 = CARTESIAN_POINT('',(2.842497159669,-1.172338153828));
#522 = CARTESIAN_POINT('',(2.85191301761,-1.191617860977));
#523 = CARTESIAN_POINT('',(2.860935892979,-1.210959183494));
#524 = CARTESIAN_POINT('',(2.869497255233,-1.230356488113));
#525 = CARTESIAN_POINT('',(2.877497117174,-1.249803858557));
#526 = CARTESIAN_POINT('',(2.884797068374,-1.269295007409));
#527 = CARTESIAN_POINT('',(2.893924025637,-1.297365640789));
#528 = CARTESIAN_POINT('',(2.896519812919,-1.305915815181));
#529 = CARTESIAN_POINT('',(2.89891257259,-1.314472296685));
#530 = CARTESIAN_POINT('',(2.90107718883,-1.323034409327));
#531 = CARTESIAN_POINT('',(2.902982965268,-1.331601414382));
#532 = CARTESIAN_POINT('',(2.904592059127,-1.340172492018));
#533 = CARTESIAN_POINT('',(2.905856331365,-1.348746704289));
#534 = CARTESIAN_POINT('',(2.907512415961,-1.365363124941));
#535 = CARTESIAN_POINT('',(2.907953810814,-1.373405090452));
#536 = CARTESIAN_POINT('',(2.907981970506,-1.38144788715));
#537 = CARTESIAN_POINT('',(2.907530532191,-1.389490432694));
#538 = CARTESIAN_POINT('',(2.906515942199,-1.397531445004));
#539 = CARTESIAN_POINT('',(2.904828103413,-1.405569330774));
#540 = CARTESIAN_POINT('',(2.902320248603,-1.413602067397));
#541 = CARTESIAN_POINT('',(2.897106399064,-1.425388304778));
#542 = CARTESIAN_POINT('',(2.89521343572,-1.429148097771));
#543 = CARTESIAN_POINT('',(2.893068694796,-1.432905819074));
#544 = CARTESIAN_POINT('',(2.890645565095,-1.43666112386));
#545 = CARTESIAN_POINT('',(2.88791302866,-1.44041361495));
#546 = CARTESIAN_POINT('',(2.884834322211,-1.444162826586));
#547 = CARTESIAN_POINT('',(2.881364864361,-1.447908199093));
#548 = CARTESIAN_POINT('',(2.873656389575,-1.455272988299));
#549 = CARTESIAN_POINT('',(2.869444801243,-1.458892683432));
#550 = CARTESIAN_POINT('',(2.864764388856,-1.462507502857));
#551 = CARTESIAN_POINT('',(2.859555449167,-1.466116706138));
#552 = CARTESIAN_POINT('',(2.853745684927,-1.469719399157));
#553 = CARTESIAN_POINT('',(2.847246632186,-1.473314490518));
#554 = CARTESIAN_POINT('',(2.839947015032,-1.476900607521));
#555 = CARTESIAN_POINT('',(2.823711378366,-1.483939532831));
#556 = CARTESIAN_POINT('',(2.814833616625,-1.487393004802));
#557 = CARTESIAN_POINT('',(2.80493385414,-1.490834700057));
#558 = CARTESIAN_POINT('',(2.79384760187,-1.494262572303));
#559 = CARTESIAN_POINT('',(2.781368432661,-1.497674047367));
#560 = CARTESIAN_POINT('',(2.767229685904,-1.501065761589));
#561 = CARTESIAN_POINT('',(2.751078100291,-1.504433232389));
#562 = CARTESIAN_POINT('',(2.723364004211,-1.509385992139));
#563 = CARTESIAN_POINT('',(2.713729454717,-1.510994911766));
#564 = CARTESIAN_POINT('',(2.703446406697,-1.512595834817));
#565 = CARTESIAN_POINT('',(2.692448875089,-1.514187887039));
#566 = CARTESIAN_POINT('',(2.680660748933,-1.515770050585));
#567 = CARTESIAN_POINT('',(2.667993399279,-1.517341123865));
#568 = CARTESIAN_POINT('',(2.654342532004,-1.518899663107));
#569 = CARTESIAN_POINT('',(2.625056636716,-1.521964019301));
#570 = CARTESIAN_POINT('',(2.609455929734,-1.523470279238));
#571 = CARTESIAN_POINT('',(2.592664070837,-1.524961002892));
#572 = CARTESIAN_POINT('',(2.574544293941,-1.526434203959));
#573 = CARTESIAN_POINT('',(2.55493822332,-1.527887515311));
#574 = CARTESIAN_POINT('',(2.533660631817,-1.529318080251));
#575 = CARTESIAN_POINT('',(2.51049510423,-1.530722399059));
#576 = CARTESIAN_POINT('',(2.460287859291,-1.533448372304));
#577 = CARTESIAN_POINT('',(2.433312357333,-1.534770974805));
#578 = CARTESIAN_POINT('',(2.404031138103,-1.536059777748));
#579 = CARTESIAN_POINT('',(2.372178308074,-1.537309813574));
#580 = CARTESIAN_POINT('',(2.337461017506,-1.538515158648));
#581 = CARTESIAN_POINT('',(2.299563665717,-1.539668633706));
#582 = CARTESIAN_POINT('',(2.258177080284,-1.540761600613));
#583 = CARTESIAN_POINT('',(2.190878117496,-1.542287384002));
#584 = CARTESIAN_POINT('',(2.167780251443,-1.542773586093));
#585 = CARTESIAN_POINT('',(2.143755761193,-1.543241536391));
#586 = CARTESIAN_POINT('',(2.11878277222,-1.543689974772));
#587 = CARTESIAN_POINT('',(2.092846461669,-1.544117572009));
#588 = CARTESIAN_POINT('',(2.065942036553,-1.54452294433));
#589 = CARTESIAN_POINT('',(2.038077919497,-1.544904679643));
#590 = CARTESIAN_POINT('',(1.952129509408,-1.545969202898));
#591 = CARTESIAN_POINT('',(1.891297430927,-1.546578441534));
#592 = CARTESIAN_POINT('',(1.826971889825,-1.54707814718));
#593 = CARTESIAN_POINT('',(1.759591449989,-1.547457626029));
#594 = CARTESIAN_POINT('',(1.689908738963,-1.547707433307));
#595 = CARTESIAN_POINT('',(1.619065208115,-1.547821931527));
#596 = CARTESIAN_POINT('',(1.548244870698,-1.547800599995));
#597 = CARTESIAN_POINT('',(1.444168954219,-1.547571311297));
#598 = CARTESIAN_POINT('',(1.410100210143,-1.547463626524));
#599 = CARTESIAN_POINT('',(1.376416555332,-1.547324303351));
#600 = CARTESIAN_POINT('',(1.343235227099,-1.547154004014));
#601 = CARTESIAN_POINT('',(1.310659791076,-1.546953601514));
#602 = CARTESIAN_POINT('',(1.278776724723,-1.546724138293));
#603 = CARTESIAN_POINT('',(1.24765436543,-1.546466777935));
#604 = CARTESIAN_POINT('',(1.157197534724,-1.545619131784));
#605 = CARTESIAN_POINT('',(1.100249117966,-1.544950505046));
#606 = CARTESIAN_POINT('',(1.046901309133,-1.544186487951));
#607 = CARTESIAN_POINT('',(0.997293348725,-1.543337815675));
#608 = CARTESIAN_POINT('',(0.951332653197,-1.542414866806));
#609 = CARTESIAN_POINT('',(0.90882831506,-1.541426853151));
#610 = CARTESIAN_POINT('',(0.869539501591,-1.54038184921));
#611 = CARTESIAN_POINT('',(0.797453193918,-1.53820888761));
#612 = CARTESIAN_POINT('',(0.764563866946,-1.5370824812));
#613 = CARTESIAN_POINT('',(0.734302298274,-1.535914236288));
#614 = CARTESIAN_POINT('',(0.70641379142,-1.534709750483));
#615 = CARTESIAN_POINT('',(0.680660245759,-1.533473673858));
#616 = CARTESIAN_POINT('',(0.656828040734,-1.532209880117));
#617 = CARTESIAN_POINT('',(0.634726210646,-1.530921638543));
#618 = CARTESIAN_POINT('',(0.593967413835,-1.528322255482));
#619 = CARTESIAN_POINT('',(0.575262001055,-1.527011786572));
#620 = CARTESIAN_POINT('',(0.557909309611,-1.525682944742));
#621 = CARTESIAN_POINT('',(0.541769323819,-1.524337899938));
#622 = CARTESIAN_POINT('',(0.526720922373,-1.522978463394));
#623 = CARTESIAN_POINT('',(0.512659088332,-1.521606166381));
#624 = CARTESIAN_POINT('',(0.499492116937,-1.520222316543));
#625 = CARTESIAN_POINT('',(0.46282094607,-1.516083058694));
#626 = CARTESIAN_POINT('',(0.441659435277,-1.513297665177));
#627 = CARTESIAN_POINT('',(0.423042405553,-1.510480448808));
#628 = CARTESIAN_POINT('',(0.406527486412,-1.507637298751));
#629 = CARTESIAN_POINT('',(0.391780056801,-1.504772581808));
#630 = CARTESIAN_POINT('',(0.378538042002,-1.501889688846));
#631 = CARTESIAN_POINT('',(0.366592786242,-1.498991269342));
#632 = CARTESIAN_POINT('',(0.345294511821,-1.493258670905));
#633 = CARTESIAN_POINT('',(0.335872155445,-1.490425314347));
#634 = CARTESIAN_POINT('',(0.327353377393,-1.487581353474));
#635 = CARTESIAN_POINT('',(0.319618465015,-1.48472828454));
#636 = CARTESIAN_POINT('',(0.312570982469,-1.481867306146));
#637 = CARTESIAN_POINT('',(0.306131391682,-1.478999404199));
#638 = CARTESIAN_POINT('',(0.300233365087,-1.476125398565));
#639 = CARTESIAN_POINT('',(0.284333607997,-1.467667118482));
#640 = CARTESIAN_POINT('',(0.275668472334,-1.462067948426));
#641 = CARTESIAN_POINT('',(0.268416642169,-1.456453523052));
#642 = CARTESIAN_POINT('',(0.262312774646,-1.450827113426));
#643 = CARTESIAN_POINT('',(0.257159781798,-1.445191171998));
#644 = CARTESIAN_POINT('',(0.252809630186,-1.439547556619));
#645 = CARTESIAN_POINT('',(0.249145594874,-1.433897753012));
#646 = CARTESIAN_POINT('',(0.243195533114,-1.422941600283));
#647 = CARTESIAN_POINT('',(0.240837683666,-1.41763585494));
#648 = CARTESIAN_POINT('',(0.238924319188,-1.412326720483));
#649 = CARTESIAN_POINT('',(0.237396613635,-1.407014975797));
#650 = CARTESIAN_POINT('',(0.236207426872,-1.401701261638));
#651 = CARTESIAN_POINT('',(0.235317970713,-1.396386120476));
#652 = CARTESIAN_POINT('',(0.234696006429,-1.391070017788));
#653 = CARTESIAN_POINT('',(0.233598380147,-1.37578463069));
#654 = CARTESIAN_POINT('',(0.233726929777,-1.365813953322));
#655 = CARTESIAN_POINT('',(0.234520010577,-1.355844015608));
#656 = CARTESIAN_POINT('',(0.235859328699,-1.345876783134));
#657 = CARTESIAN_POINT('',(0.237656264479,-1.335913878556));
#658 = CARTESIAN_POINT('',(0.239843751497,-1.325956676186));
#659 = CARTESIAN_POINT('',(0.242368596564,-1.316006392626));
#660 = CARTESIAN_POINT('',(0.250122414631,-1.288665158198));
#661 = CARTESIAN_POINT('',(0.255959233672,-1.271290741647));
#662 = CARTESIAN_POINT('',(0.26247011145,-1.253946759177));
#663 = CARTESIAN_POINT('',(0.269523384929,-1.236638004942));
#664 = CARTESIAN_POINT('',(0.277023463176,-1.219368898377));
#665 = CARTESIAN_POINT('',(0.28490306868,-1.20214357791));
#666 = CARTESIAN_POINT('',(0.293110369261,-1.184966056055));
#667 = CARTESIAN_POINT('',(0.314348809182,-1.142151569538));
#668 = CARTESIAN_POINT('',(0.327740010411,-1.116579264316));
#669 = CARTESIAN_POINT('',(0.34164539473,-1.091136607761));
#670 = CARTESIAN_POINT('',(0.35598998759,-1.065836470731));
#671 = CARTESIAN_POINT('',(0.370721266865,-1.040691793946));
#672 = CARTESIAN_POINT('',(0.385804195903,-1.015715681987));
#673 = CARTESIAN_POINT('',(0.401213413336,-0.990921529571));
#674 = CARTESIAN_POINT('',(0.432648881763,-0.941724625752));
#675 = CARTESIAN_POINT('',(0.448675124187,-0.917321874452));
#676 = CARTESIAN_POINT('',(0.464992064659,-0.893128565168));
#677 = CARTESIAN_POINT('',(0.481589137247,-0.86915878967));
#678 = CARTESIAN_POINT('',(0.498460074796,-0.8454270561));
#679 = CARTESIAN_POINT('',(0.515601471983,-0.82194833453));
#680 = CARTESIAN_POINT('',(0.533012083228,-0.79873808764));
#681 = CARTESIAN_POINT('',(0.550692081812,-0.775812292044));
#682 = ( GEOMETRIC_REPRESENTATION_CONTEXT(2) 
PARAMETRIC_REPRESENTATION_CONTEXT() REPRESENTATION_CONTEXT('2D SPACE',''
  ) );
#683 = ADVANCED_FACE('',(#684),#71,.F.);
#684 = FACE_BOUND('',#685,.F.);
#685 = EDGE_LOOP('',(#686,#687,#688,#689));
#686 = ORIENTED_EDGE('',*,*,#442,.F.);
#687 = ORIENTED_EDGE('',*,*,#56,.T.);
#688 = ORIENTED_EDGE('',*,*,#193,.T.);
#689 = ORIENTED_EDGE('',*,*,#690,.F.);
#690 = EDGE_CURVE('',#443,#194,#691,.T.);
#691 = SURFACE_CURVE('',#692,(#697,#704),.PCURVE_S1.);
#692 = CIRCLE('',#693,73.896996320513);
#693 = AXIS2_PLACEMENT_3D('',#694,#695,#696);
#694 = CARTESIAN_POINT('',(125.,-9.743711456899,66.675696915011));
#695 = DIRECTION('',(0.E+000,0.760313961744,0.649555755556));
#696 = DIRECTION('',(0.E+000,-0.649555755556,0.760313961744));
#697 = PCURVE('',#71,#698);
#698 = DEFINITIONAL_REPRESENTATION('',(#699),#703);
#699 = CIRCLE('',#700,73.896996320513);
#700 = AXIS2_PLACEMENT_2D('',#701,#702);
#701 = CARTESIAN_POINT('',(58.131129192713,135.));
#702 = DIRECTION('',(1.,0.E+000));
#703 = ( GEOMETRIC_REPRESENTATION_CONTEXT(2) 
PARAMETRIC_REPRESENTATION_CONTEXT() REPRESENTATION_CONTEXT('2D SPACE',''
  ) );
#704 = PCURVE('',#253,#705);
#705 = DEFINITIONAL_REPRESENTATION('',(#706),#723);
#706 = B_SPLINE_CURVE_WITH_KNOTS('',8,(#707,#708,#709,#710,#711,#712,
    #713,#714,#715,#716,#717,#718,#719,#720,#721,#722),.UNSPECIFIED.,.F.
  ,.F.,(9,7,9),(3.80702363369,4.204578038339,4.602132442987),
  .UNSPECIFIED.);
#707 = CARTESIAN_POINT('',(2.590900571778,-0.775812292044));
#708 = CARTESIAN_POINT('',(2.642575452511,-0.743614802897));
#709 = CARTESIAN_POINT('',(2.690957279233,-0.710249688928));
#710 = CARTESIAN_POINT('',(2.736486089907,-0.675934786926));
#711 = CARTESIAN_POINT('',(2.77957585048,-0.640845518708));
#712 = CARTESIAN_POINT('',(2.820584571127,-0.605123981687));
#713 = CARTESIAN_POINT('',(2.859824304684,-0.568888833968));
#714 = CARTESIAN_POINT('',(2.897566710009,-0.532240998672));
#715 = CARTESIAN_POINT('',(2.970536115829,-0.458296076959));
#716 = CARTESIAN_POINT('',(3.005763108611,-0.4209989899));
#717 = CARTESIAN_POINT('',(3.039971998717,-0.383465322481));
#718 = CARTESIAN_POINT('',(3.073370048696,-0.345770217822));
#719 = CARTESIAN_POINT('',(3.106139992768,-0.307980505242));
#720 = CARTESIAN_POINT('',(3.138446607748,-0.270157792897));
#721 = CARTESIAN_POINT('',(3.170441994541,-0.2323607138));
#722 = CARTESIAN_POINT('',(3.202269526436,-0.194646974923));
#723 = ( GEOMETRIC_REPRESENTATION_CONTEXT(2) 
PARAMETRIC_REPRESENTATION_CONTEXT() REPRESENTATION_CONTEXT('2D SPACE',''
  ) );
#724 = ADVANCED_FACE('',(#725),#253,.F.);
#725 = FACE_BOUND('',#726,.F.);
#726 = EDGE_LOOP('',(#727,#797,#798,#799,#800));
#727 = ORIENTED_EDGE('',*,*,#728,.F.);
#728 = EDGE_CURVE('',#468,#294,#729,.T.);
#729 = SURFACE_CURVE('',#730,(#735,#790),.PCURVE_S1.);
#730 = CIRCLE('',#731,70.710678118655);
#731 = AXIS2_PLACEMENT_3D('',#732,#733,#734);
#732 = CARTESIAN_POINT('',(100.,0.E+000,75.));
#733 = DIRECTION('',(1.,0.E+000,-0.E+000));
#734 = DIRECTION('',(0.E+000,0.E+000,1.));
#735 = PCURVE('',#253,#736);
#736 = DEFINITIONAL_REPRESENTATION('',(#737),#789);
#737 = B_SPLINE_CURVE_WITH_KNOTS('',8,(#738,#739,#740,#741,#742,#743,
    #744,#745,#746,#747,#748,#749,#750,#751,#752,#753,#754,#755,#756,
    #757,#758,#759,#760,#761,#762,#763,#764,#765,#766,#767,#768,#769,
    #770,#771,#772,#773,#774,#775,#776,#777,#778,#779,#780,#781,#782,
    #783,#784,#785,#786,#787,#788),.UNSPECIFIED.,.F.,.F.,(9,7,7,7,7,7,7,
    9),(3.14159265359,3.262352869259,3.375565571448,3.587839388054,
    3.773578977583,4.09862325926,4.586189681776,5.073756104291),
  .UNSPECIFIED.);
#738 = CARTESIAN_POINT('',(3.14159265359,-1.230959417341));
#739 = CARTESIAN_POINT('',(3.098897469891,-1.230959417341));
#740 = CARTESIAN_POINT('',(3.056202285797,-1.230222862843));
#741 = CARTESIAN_POINT('',(3.013759120586,-1.228749756283));
#742 = CARTESIAN_POINT('',(2.971819965131,-1.226549038249));
#743 = CARTESIAN_POINT('',(2.930618586179,-1.223638639714));
#744 = CARTESIAN_POINT('',(2.890351630601,-1.220043991465));
#745 = CARTESIAN_POINT('',(2.851173601957,-1.215795609064));
#746 = CARTESIAN_POINT('',(2.777596312311,-1.206362883509));
#747 = CARTESIAN_POINT('',(2.743051413961,-1.201253633712));
#748 = CARTESIAN_POINT('',(2.709657264819,-1.19562704491));
#749 = CARTESIAN_POINT('',(2.677476021709,-1.18951321119));
#750 = CARTESIAN_POINT('',(2.646539551828,-1.182943086449));
#751 = CARTESIAN_POINT('',(2.616854907432,-1.175947285009));
#752 = CARTESIAN_POINT('',(2.588410957924,-1.168555276179));
#753 = CARTESIAN_POINT('',(2.510131006837,-1.146244541291));
#754 = CARTESIAN_POINT('',(2.463354348566,-1.130399441724));
#755 = CARTESIAN_POINT('',(2.420691746656,-1.113444002613));
#756 = CARTESIAN_POINT('',(2.381815997494,-1.095543638628));
#757 = CARTESIAN_POINT('',(2.346358611362,-1.076835255602));
#758 = CARTESIAN_POINT('',(2.313969008016,-1.057432314351));
#759 = CARTESIAN_POINT('',(2.284324259852,-1.037428691048));
#760 = CARTESIAN_POINT('',(2.233347059633,-0.998942261785));
#761 = CARTESIAN_POINT('',(2.211438763358,-0.980581909205));
#762 = CARTESIAN_POINT('',(2.191218466288,-0.961873931937));
#763 = CARTESIAN_POINT('',(2.172513360142,-0.942861502577));
#764 = CARTESIAN_POINT('',(2.155172378314,-0.923580557047));
#765 = CARTESIAN_POINT('',(2.139064100868,-0.904061353039));
#766 = CARTESIAN_POINT('',(2.124073523381,-0.884329646919));
#767 = CARTESIAN_POINT('',(2.085646702137,-0.829543836502));
#768 = CARTESIAN_POINT('',(2.064308405208,-0.794097026099));
#769 = CARTESIAN_POINT('',(2.045546193726,-0.758185489268));
#770 = CARTESIAN_POINT('',(2.02895595823,-0.721893548449));
#771 = CARTESIAN_POINT('',(2.01422698924,-0.685285136413));
#772 = CARTESIAN_POINT('',(2.001114578351,-0.648410724908));
#773 = CARTESIAN_POINT('',(1.989422764664,-0.611310710261));
#774 = CARTESIAN_POINT('',(1.963348930348,-0.518080080983));
#775 = CARTESIAN_POINT('',(1.950544733874,-0.461709158631));
#776 = CARTESIAN_POINT('',(1.940046187109,-0.405018146967));
#777 = CARTESIAN_POINT('',(1.931508207284,-0.348083240183));
#778 = CARTESIAN_POINT('',(1.924688761036,-0.290963662405));
#779 = CARTESIAN_POINT('',(1.919421337777,-0.2337072507));
#780 = CARTESIAN_POINT('',(1.915595444055,-0.176355489363));
#781 = CARTESIAN_POINT('',(1.910705105862,-6.153761404301E-002));
#782 = CARTESIAN_POINT('',(1.909640657508,-4.071502313238E-003));
#783 = CARTESIAN_POINT('',(1.909896073295,5.341359922488E-002));
#784 = CARTESIAN_POINT('',(1.911460003534,0.110882714374));
#785 = CARTESIAN_POINT('',(1.914363230657,0.168300815646));
#786 = CARTESIAN_POINT('',(1.918681883407,0.225630148297));
#787 = CARTESIAN_POINT('',(1.92454522535,0.282827331131));
#788 = CARTESIAN_POINT('',(1.932163450702,0.339836909454));
#789 = ( GEOMETRIC_REPRESENTATION_CONTEXT(2) 
PARAMETRIC_REPRESENTATION_CONTEXT() REPRESENTATION_CONTEXT('2D SPACE',''
  ) );
#790 = PCURVE('',#331,#791);
#791 = DEFINITIONAL_REPRESENTATION('',(#792),#796);
#792 = CIRCLE('',#793,70.710678118655);
#793 = AXIS2_PLACEMENT_2D('',#794,#795);
#794 = CARTESIAN_POINT('',(75.,0.E+000));
#795 = DIRECTION('',(1.,0.E+000));
#796 = ( GEOMETRIC_REPRESENTATION_CONTEXT(2) 
PARAMETRIC_REPRESENTATION_CONTEXT() REPRESENTATION_CONTEXT('2D SPACE',''
  ) );
#797 = ORIENTED_EDGE('',*,*,#488,.F.);
#798 = ORIENTED_EDGE('',*,*,#690,.T.);
#799 = ORIENTED_EDGE('',*,*,#238,.T.);
#800 = ORIENTED_EDGE('',*,*,#293,.F.);
#801 = ADVANCED_FACE('',(#802),#331,.T.);
#802 = FACE_BOUND('',#803,.T.);
#803 = EDGE_LOOP('',(#804,#805,#806,#807,#808));
#804 = ORIENTED_EDGE('',*,*,#467,.T.);
#805 = ORIENTED_EDGE('',*,*,#417,.T.);
#806 = ORIENTED_EDGE('',*,*,#371,.T.);
#807 = ORIENTED_EDGE('',*,*,#317,.F.);
#808 = ORIENTED_EDGE('',*,*,#728,.F.);
#809 = ( GEOMETRIC_REPRESENTATION_CONTEXT(3) 
GLOBAL_UNCERTAINTY_ASSIGNED_CONTEXT((#813)) GLOBAL_UNIT_ASSIGNED_CONTEXT
((#810,#811,#812)) REPRESENTATION_CONTEXT('Context #1',
  '3D Context with UNIT and UNCERTAINTY') );
#810 = ( LENGTH_UNIT() NAMED_UNIT(*) SI_UNIT(.MILLI.,.METRE.) );
#811 = ( NAMED_UNIT(*) PLANE_ANGLE_UNIT() SI_UNIT($,.RADIAN.) );
#812 = ( NAMED_UNIT(*) SI_UNIT($,.STERADIAN.) SOLID_ANGLE_UNIT() );
#813 = UNCERTAINTY_MEASURE_WITH_UNIT(LENGTH_MEASURE(1.E-007),#810,
  'distance_accuracy_value','confusion accuracy');
#814 = PRODUCT_RELATED_PRODUCT_CATEGORY('part',$,(#7));
#815 = SHAPE_DEFINITION_REPRESENTATION(#816,#822);
#816 = PRODUCT_DEFINITION_SHAPE('','',#817);
#817 = PRODUCT_DEFINITION('design','',#818,#821);
#818 = PRODUCT_DEFINITION_FORMATION('','',#819);
#819 = PRODUCT('Open CASCADE STEP translator 7.7 2',
  'Open CASCADE STEP translator 7.7 2','',(#820));
#820 = PRODUCT_CONTEXT('',#2,'mechanical');
#821 = PRODUCT_DEFINITION_CONTEXT('part definition',#2,'design');
#822 = ADVANCED_BREP_SHAPE_REPRESENTATION('',(#11,#823),#835);
#823 = MANIFOLD_SOLID_BREP('',#824);
#824 = CLOSED_SHELL('',(#825));
#825 = ADVANCED_FACE('',(#826),#830,.T.);
#826 = FACE_BOUND('',#827,.T.);
#827 = VERTEX_LOOP('',#828);
#828 = VERTEX_POINT('',#829);
#829 = CARTESIAN_POINT('',(-175.,200.,0.E+000));
#830 = SPHERICAL_SURFACE('',#831,75.);
#831 = AXIS2_PLACEMENT_3D('',#832,#833,#834);
#832 = CARTESIAN_POINT('',(-175.,200.,75.));
#833 = DIRECTION('',(0.E+000,0.E+000,1.));
#834 = DIRECTION('',(1.,0.E+000,0.E+000));
#835 = ( GEOMETRIC_REPRESENTATION_CONTEXT(3) 
GLOBAL_UNCERTAINTY_ASSIGNED_CONTEXT((#839)) GLOBAL_UNIT_ASSIGNED_CONTEXT
((#836,#837,#838)) REPRESENTATION_CONTEXT('Context #1',
  '3D Context with UNIT and UNCERTAINTY') );
#836 = ( LENGTH_UNIT() NAMED_UNIT(*) SI_UNIT(.MILLI.,.METRE.) );
#837 = ( NAMED_UNIT(*) PLANE_ANGLE_UNIT() SI_UNIT($,.RADIAN.) );
#838 = ( NAMED_UNIT(*) SI_UNIT($,.STERADIAN.) SOLID_ANGLE_UNIT() );
#839 = UNCERTAINTY_MEASURE_WITH_UNIT(LENGTH_MEASURE(1.E-007),#836,
  'distance_accuracy_value','confusion accuracy');
#840 = PRODUCT_RELATED_PRODUCT_CATEGORY('part',$,(#819));
#841 = SHAPE_DEFINITION_REPRESENTATION(#842,#848);
#842 = PRODUCT_DEFINITION_SHAPE('','',#843);
#843 = PRODUCT_DEFINITION('design','',#844,#847);
#844 = PRODUCT_DEFINITION_FORMATION('','',#845);
#845 = PRODUCT('Open CASCADE STEP translator 7.7 3',
  'Open CASCADE STEP translator 7.7 3','',(#846));
#846 = PRODUCT_CONTEXT('',#2,'mechanical');
#847 = PRODUCT_DEFINITION_CONTEXT('part definition',#2,'design');
#848 = ADVANCED_BREP_SHAPE_REPRESENTATION('',(#11,#849),#1179);
#849 = MANIFOLD_SOLID_BREP('',#850);
#850 = CLOSED_SHELL('',(#851,#971,#1071,#1118,#1165,#1172));
#851 = ADVANCED_FACE('',(#852),#866,.F.);
#852 = FACE_BOUND('',#853,.F.);
#853 = EDGE_LOOP('',(#854,#889,#917,#945));
#854 = ORIENTED_EDGE('',*,*,#855,.F.);
#855 = EDGE_CURVE('',#856,#858,#860,.T.);
#856 = VERTEX_POINT('',#857);
#857 = CARTESIAN_POINT('',(0.E+000,200.,0.E+000));
#858 = VERTEX_POINT('',#859);
#859 = CARTESIAN_POINT('',(0.E+000,200.,100.));
#860 = SURFACE_CURVE('',#861,(#865,#877),.PCURVE_S1.);
#861 = LINE('',#862,#863);
#862 = CARTESIAN_POINT('',(0.E+000,200.,0.E+000));
#863 = VECTOR('',#864,1.);
#864 = DIRECTION('',(0.E+000,0.E+000,1.));
#865 = PCURVE('',#866,#871);
#866 = PLANE('',#867);
#867 = AXIS2_PLACEMENT_3D('',#868,#869,#870);
#868 = CARTESIAN_POINT('',(0.E+000,200.,0.E+000));
#869 = DIRECTION('',(1.,0.E+000,0.E+000));
#870 = DIRECTION('',(0.E+000,0.E+000,1.));
#871 = DEFINITIONAL_REPRESENTATION('',(#872),#876);
#872 = LINE('',#873,#874);
#873 = CARTESIAN_POINT('',(0.E+000,0.E+000));
#874 = VECTOR('',#875,1.);
#875 = DIRECTION('',(1.,0.E+000));
#876 = ( GEOMETRIC_REPRESENTATION_CONTEXT(2) 
PARAMETRIC_REPRESENTATION_CONTEXT() REPRESENTATION_CONTEXT('2D SPACE',''
  ) );
#877 = PCURVE('',#878,#883);
#878 = PLANE('',#879);
#879 = AXIS2_PLACEMENT_3D('',#880,#881,#882);
#880 = CARTESIAN_POINT('',(0.E+000,200.,0.E+000));
#881 = DIRECTION('',(0.E+000,1.,0.E+000));
#882 = DIRECTION('',(0.E+000,0.E+000,1.));
#883 = DEFINITIONAL_REPRESENTATION('',(#884),#888);
#884 = LINE('',#885,#886);
#885 = CARTESIAN_POINT('',(0.E+000,0.E+000));
#886 = VECTOR('',#887,1.);
#887 = DIRECTION('',(1.,0.E+000));
#888 = ( GEOMETRIC_REPRESENTATION_CONTEXT(2) 
PARAMETRIC_REPRESENTATION_CONTEXT() REPRESENTATION_CONTEXT('2D SPACE',''
  ) );
#889 = ORIENTED_EDGE('',*,*,#890,.T.);
#890 = EDGE_CURVE('',#856,#891,#893,.T.);
#891 = VERTEX_POINT('',#892);
#892 = CARTESIAN_POINT('',(0.E+000,300.,0.E+000));
#893 = SURFACE_CURVE('',#894,(#898,#905),.PCURVE_S1.);
#894 = LINE('',#895,#896);
#895 = CARTESIAN_POINT('',(0.E+000,200.,0.E+000));
#896 = VECTOR('',#897,1.);
#897 = DIRECTION('',(0.E+000,1.,0.E+000));
#898 = PCURVE('',#866,#899);
#899 = DEFINITIONAL_REPRESENTATION('',(#900),#904);
#900 = LINE('',#901,#902);
#901 = CARTESIAN_POINT('',(0.E+000,0.E+000));
#902 = VECTOR('',#903,1.);
#903 = DIRECTION('',(0.E+000,-1.));
#904 = ( GEOMETRIC_REPRESENTATION_CONTEXT(2) 
PARAMETRIC_REPRESENTATION_CONTEXT() REPRESENTATION_CONTEXT('2D SPACE',''
  ) );
#905 = PCURVE('',#906,#911);
#906 = PLANE('',#907);
#907 = AXIS2_PLACEMENT_3D('',#908,#909,#910);
#908 = CARTESIAN_POINT('',(0.E+000,200.,0.E+000));
#909 = DIRECTION('',(0.E+000,0.E+000,1.));
#910 = DIRECTION('',(1.,0.E+000,0.E+000));
#911 = DEFINITIONAL_REPRESENTATION('',(#912),#916);
#912 = LINE('',#913,#914);
#913 = CARTESIAN_POINT('',(0.E+000,0.E+000));
#914 = VECTOR('',#915,1.);
#915 = DIRECTION('',(0.E+000,1.));
#916 = ( GEOMETRIC_REPRESENTATION_CONTEXT(2) 
PARAMETRIC_REPRESENTATION_CONTEXT() REPRESENTATION_CONTEXT('2D SPACE',''
  ) );
#917 = ORIENTED_EDGE('',*,*,#918,.T.);
#918 = EDGE_CURVE('',#891,#919,#921,.T.);
#919 = VERTEX_POINT('',#920);
#920 = CARTESIAN_POINT('',(0.E+000,300.,100.));
#921 = SURFACE_CURVE('',#922,(#926,#933),.PCURVE_S1.);
#922 = LINE('',#923,#924);
#923 = CARTESIAN_POINT('',(0.E+000,300.,0.E+000));
#924 = VECTOR('',#925,1.);
#925 = DIRECTION('',(0.E+000,0.E+000,1.));
#926 = PCURVE('',#866,#927);
#927 = DEFINITIONAL_REPRESENTATION('',(#928),#932);
#928 = LINE('',#929,#930);
#929 = CARTESIAN_POINT('',(0.E+000,-100.));
#930 = VECTOR('',#931,1.);
#931 = DIRECTION('',(1.,0.E+000));
#932 = ( GEOMETRIC_REPRESENTATION_CONTEXT(2) 
PARAMETRIC_REPRESENTATION_CONTEXT() REPRESENTATION_CONTEXT('2D SPACE',''
  ) );
#933 = PCURVE('',#934,#939);
#934 = PLANE('',#935);
#935 = AXIS2_PLACEMENT_3D('',#936,#937,#938);
#936 = CARTESIAN_POINT('',(0.E+000,300.,0.E+000));
#937 = DIRECTION('',(0.E+000,1.,0.E+000));
#938 = DIRECTION('',(0.E+000,0.E+000,1.));
#939 = DEFINITIONAL_REPRESENTATION('',(#940),#944);
#940 = LINE('',#941,#942);
#941 = CARTESIAN_POINT('',(0.E+000,0.E+000));
#942 = VECTOR('',#943,1.);
#943 = DIRECTION('',(1.,0.E+000));
#944 = ( GEOMETRIC_REPRESENTATION_CONTEXT(2) 
PARAMETRIC_REPRESENTATION_CONTEXT() REPRESENTATION_CONTEXT('2D SPACE',''
  ) );
#945 = ORIENTED_EDGE('',*,*,#946,.F.);
#946 = EDGE_CURVE('',#858,#919,#947,.T.);
#947 = SURFACE_CURVE('',#948,(#952,#959),.PCURVE_S1.);
#948 = LINE('',#949,#950);
#949 = CARTESIAN_POINT('',(0.E+000,200.,100.));
#950 = VECTOR('',#951,1.);
#951 = DIRECTION('',(0.E+000,1.,0.E+000));
#952 = PCURVE('',#866,#953);
#953 = DEFINITIONAL_REPRESENTATION('',(#954),#958);
#954 = LINE('',#955,#956);
#955 = CARTESIAN_POINT('',(100.,0.E+000));
#956 = VECTOR('',#957,1.);
#957 = DIRECTION('',(0.E+000,-1.));
#958 = ( GEOMETRIC_REPRESENTATION_CONTEXT(2) 
PARAMETRIC_REPRESENTATION_CONTEXT() REPRESENTATION_CONTEXT('2D SPACE',''
  ) );
#959 = PCURVE('',#960,#965);
#960 = PLANE('',#961);
#961 = AXIS2_PLACEMENT_3D('',#962,#963,#964);
#962 = CARTESIAN_POINT('',(0.E+000,200.,100.));
#963 = DIRECTION('',(0.E+000,0.E+000,1.));
#964 = DIRECTION('',(1.,0.E+000,0.E+000));
#965 = DEFINITIONAL_REPRESENTATION('',(#966),#970);
#966 = LINE('',#967,#968);
#967 = CARTESIAN_POINT('',(0.E+000,0.E+000));
#968 = VECTOR('',#969,1.);
#969 = DIRECTION('',(0.E+000,1.));
#970 = ( GEOMETRIC_REPRESENTATION_CONTEXT(2) 
PARAMETRIC_REPRESENTATION_CONTEXT() REPRESENTATION_CONTEXT('2D SPACE',''
  ) );
#971 = ADVANCED_FACE('',(#972),#986,.T.);
#972 = FACE_BOUND('',#973,.T.);
#973 = EDGE_LOOP('',(#974,#1004,#1027,#1050));
#974 = ORIENTED_EDGE('',*,*,#975,.F.);
#975 = EDGE_CURVE('',#976,#978,#980,.T.);
#976 = VERTEX_POINT('',#977);
#977 = CARTESIAN_POINT('',(100.,200.,0.E+000));
#978 = VERTEX_POINT('',#979);
#979 = CARTESIAN_POINT('',(100.,200.,100.));
#980 = SURFACE_CURVE('',#981,(#985,#997),.PCURVE_S1.);
#981 = LINE('',#982,#983);
#982 = CARTESIAN_POINT('',(100.,200.,0.E+000));
#983 = VECTOR('',#984,1.);
#984 = DIRECTION('',(0.E+000,0.E+000,1.));
#985 = PCURVE('',#986,#991);
#986 = PLANE('',#987);
#987 = AXIS2_PLACEMENT_3D('',#988,#989,#990);
#988 = CARTESIAN_POINT('',(100.,200.,0.E+000));
#989 = DIRECTION('',(1.,0.E+000,0.E+000));
#990 = DIRECTION('',(0.E+000,0.E+000,1.));
#991 = DEFINITIONAL_REPRESENTATION('',(#992),#996);
#992 = LINE('',#993,#994);
#993 = CARTESIAN_POINT('',(0.E+000,0.E+000));
#994 = VECTOR('',#995,1.);
#995 = DIRECTION('',(1.,0.E+000));
#996 = ( GEOMETRIC_REPRESENTATION_CONTEXT(2) 
PARAMETRIC_REPRESENTATION_CONTEXT() REPRESENTATION_CONTEXT('2D SPACE',''
  ) );
#997 = PCURVE('',#878,#998);
#998 = DEFINITIONAL_REPRESENTATION('',(#999),#1003);
#999 = LINE('',#1000,#1001);
#1000 = CARTESIAN_POINT('',(0.E+000,100.));
#1001 = VECTOR('',#1002,1.);
#1002 = DIRECTION('',(1.,0.E+000));
#1003 = ( GEOMETRIC_REPRESENTATION_CONTEXT(2) 
PARAMETRIC_REPRESENTATION_CONTEXT() REPRESENTATION_CONTEXT('2D SPACE',''
  ) );
#1004 = ORIENTED_EDGE('',*,*,#1005,.T.);
#1005 = EDGE_CURVE('',#976,#1006,#1008,.T.);
#1006 = VERTEX_POINT('',#1007);
#1007 = CARTESIAN_POINT('',(100.,300.,0.E+000));
#1008 = SURFACE_CURVE('',#1009,(#1013,#1020),.PCURVE_S1.);
#1009 = LINE('',#1010,#1011);
#1010 = CARTESIAN_POINT('',(100.,200.,0.E+000));
#1011 = VECTOR('',#1012,1.);
#1012 = DIRECTION('',(0.E+000,1.,0.E+000));
#1013 = PCURVE('',#986,#1014);
#1014 = DEFINITIONAL_REPRESENTATION('',(#1015),#1019);
#1015 = LINE('',#1016,#1017);
#1016 = CARTESIAN_POINT('',(0.E+000,0.E+000));
#1017 = VECTOR('',#1018,1.);
#1018 = DIRECTION('',(0.E+000,-1.));
#1019 = ( GEOMETRIC_REPRESENTATION_CONTEXT(2) 
PARAMETRIC_REPRESENTATION_CONTEXT() REPRESENTATION_CONTEXT('2D SPACE',''
  ) );
#1020 = PCURVE('',#906,#1021);
#1021 = DEFINITIONAL_REPRESENTATION('',(#1022),#1026);
#1022 = LINE('',#1023,#1024);
#1023 = CARTESIAN_POINT('',(100.,0.E+000));
#1024 = VECTOR('',#1025,1.);
#1025 = DIRECTION('',(0.E+000,1.));
#1026 = ( GEOMETRIC_REPRESENTATION_CONTEXT(2) 
PARAMETRIC_REPRESENTATION_CONTEXT() REPRESENTATION_CONTEXT('2D SPACE',''
  ) );
#1027 = ORIENTED_EDGE('',*,*,#1028,.T.);
#1028 = EDGE_CURVE('',#1006,#1029,#1031,.T.);
#1029 = VERTEX_POINT('',#1030);
#1030 = CARTESIAN_POINT('',(100.,300.,100.));
#1031 = SURFACE_CURVE('',#1032,(#1036,#1043),.PCURVE_S1.);
#1032 = LINE('',#1033,#1034);
#1033 = CARTESIAN_POINT('',(100.,300.,0.E+000));
#1034 = VECTOR('',#1035,1.);
#1035 = DIRECTION('',(0.E+000,0.E+000,1.));
#1036 = PCURVE('',#986,#1037);
#1037 = DEFINITIONAL_REPRESENTATION('',(#1038),#1042);
#1038 = LINE('',#1039,#1040);
#1039 = CARTESIAN_POINT('',(0.E+000,-100.));
#1040 = VECTOR('',#1041,1.);
#1041 = DIRECTION('',(1.,0.E+000));
#1042 = ( GEOMETRIC_REPRESENTATION_CONTEXT(2) 
PARAMETRIC_REPRESENTATION_CONTEXT() REPRESENTATION_CONTEXT('2D SPACE',''
  ) );
#1043 = PCURVE('',#934,#1044);
#1044 = DEFINITIONAL_REPRESENTATION('',(#1045),#1049);
#1045 = LINE('',#1046,#1047);
#1046 = CARTESIAN_POINT('',(0.E+000,100.));
#1047 = VECTOR('',#1048,1.);
#1048 = DIRECTION('',(1.,0.E+000));
#1049 = ( GEOMETRIC_REPRESENTATION_CONTEXT(2) 
PARAMETRIC_REPRESENTATION_CONTEXT() REPRESENTATION_CONTEXT('2D SPACE',''
  ) );
#1050 = ORIENTED_EDGE('',*,*,#1051,.F.);
#1051 = EDGE_CURVE('',#978,#1029,#1052,.T.);
#1052 = SURFACE_CURVE('',#1053,(#1057,#1064),.PCURVE_S1.);
#1053 = LINE('',#1054,#1055);
#1054 = CARTESIAN_POINT('',(100.,200.,100.));
#1055 = VECTOR('',#1056,1.);
#1056 = DIRECTION('',(0.E+000,1.,0.E+000));
#1057 = PCURVE('',#986,#1058);
#1058 = DEFINITIONAL_REPRESENTATION('',(#1059),#1063);
#1059 = LINE('',#1060,#1061);
#1060 = CARTESIAN_POINT('',(100.,0.E+000));
#1061 = VECTOR('',#1062,1.);
#1062 = DIRECTION('',(0.E+000,-1.));
#1063 = ( GEOMETRIC_REPRESENTATION_CONTEXT(2) 
PARAMETRIC_REPRESENTATION_CONTEXT() REPRESENTATION_CONTEXT('2D SPACE',''
  ) );
#1064 = PCURVE('',#960,#1065);
#1065 = DEFINITIONAL_REPRESENTATION('',(#1066),#1070);
#1066 = LINE('',#1067,#1068);
#1067 = CARTESIAN_POINT('',(100.,0.E+000));
#1068 = VECTOR('',#1069,1.);
#1069 = DIRECTION('',(0.E+000,1.));
#1070 = ( GEOMETRIC_REPRESENTATION_CONTEXT(2) 
PARAMETRIC_REPRESENTATION_CONTEXT() REPRESENTATION_CONTEXT('2D SPACE',''
  ) );
#1071 = ADVANCED_FACE('',(#1072),#878,.F.);
#1072 = FACE_BOUND('',#1073,.F.);
#1073 = EDGE_LOOP('',(#1074,#1095,#1096,#1117));
#1074 = ORIENTED_EDGE('',*,*,#1075,.F.);
#1075 = EDGE_CURVE('',#856,#976,#1076,.T.);
#1076 = SURFACE_CURVE('',#1077,(#1081,#1088),.PCURVE_S1.);
#1077 = LINE('',#1078,#1079);
#1078 = CARTESIAN_POINT('',(0.E+000,200.,0.E+000));
#1079 = VECTOR('',#1080,1.);
#1080 = DIRECTION('',(1.,0.E+000,0.E+000));
#1081 = PCURVE('',#878,#1082);
#1082 = DEFINITIONAL_REPRESENTATION('',(#1083),#1087);
#1083 = LINE('',#1084,#1085);
#1084 = CARTESIAN_POINT('',(0.E+000,0.E+000));
#1085 = VECTOR('',#1086,1.);
#1086 = DIRECTION('',(0.E+000,1.));
#1087 = ( GEOMETRIC_REPRESENTATION_CONTEXT(2) 
PARAMETRIC_REPRESENTATION_CONTEXT() REPRESENTATION_CONTEXT('2D SPACE',''
  ) );
#1088 = PCURVE('',#906,#1089);
#1089 = DEFINITIONAL_REPRESENTATION('',(#1090),#1094);
#1090 = LINE('',#1091,#1092);
#1091 = CARTESIAN_POINT('',(0.E+000,0.E+000));
#1092 = VECTOR('',#1093,1.);
#1093 = DIRECTION('',(1.,0.E+000));
#1094 = ( GEOMETRIC_REPRESENTATION_CONTEXT(2) 
PARAMETRIC_REPRESENTATION_CONTEXT() REPRESENTATION_CONTEXT('2D SPACE',''
  ) );
#1095 = ORIENTED_EDGE('',*,*,#855,.T.);
#1096 = ORIENTED_EDGE('',*,*,#1097,.T.);
#1097 = EDGE_CURVE('',#858,#978,#1098,.T.);
#1098 = SURFACE_CURVE('',#1099,(#1103,#1110),.PCURVE_S1.);
#1099 = LINE('',#1100,#1101);
#1100 = CARTESIAN_POINT('',(0.E+000,200.,100.));
#1101 = VECTOR('',#1102,1.);
#1102 = DIRECTION('',(1.,0.E+000,0.E+000));
#1103 = PCURVE('',#878,#1104);
#1104 = DEFINITIONAL_REPRESENTATION('',(#1105),#1109);
#1105 = LINE('',#1106,#1107);
#1106 = CARTESIAN_POINT('',(100.,0.E+000));
#1107 = VECTOR('',#1108,1.);
#1108 = DIRECTION('',(0.E+000,1.));
#1109 = ( GEOMETRIC_REPRESENTATION_CONTEXT(2) 
PARAMETRIC_REPRESENTATION_CONTEXT() REPRESENTATION_CONTEXT('2D SPACE',''
  ) );
#1110 = PCURVE('',#960,#1111);
#1111 = DEFINITIONAL_REPRESENTATION('',(#1112),#1116);
#1112 = LINE('',#1113,#1114);
#1113 = CARTESIAN_POINT('',(0.E+000,0.E+000));
#1114 = VECTOR('',#1115,1.);
#1115 = DIRECTION('',(1.,0.E+000));
#1116 = ( GEOMETRIC_REPRESENTATION_CONTEXT(2) 
PARAMETRIC_REPRESENTATION_CONTEXT() REPRESENTATION_CONTEXT('2D SPACE',''
  ) );
#1117 = ORIENTED_EDGE('',*,*,#975,.F.);
#1118 = ADVANCED_FACE('',(#1119),#934,.T.);
#1119 = FACE_BOUND('',#1120,.T.);
#1120 = EDGE_LOOP('',(#1121,#1142,#1143,#1164));
#1121 = ORIENTED_EDGE('',*,*,#1122,.F.);
#1122 = EDGE_CURVE('',#891,#1006,#1123,.T.);
#1123 = SURFACE_CURVE('',#1124,(#1128,#1135),.PCURVE_S1.);
#1124 = LINE('',#1125,#1126);
#1125 = CARTESIAN_POINT('',(0.E+000,300.,0.E+000));
#1126 = VECTOR('',#1127,1.);
#1127 = DIRECTION('',(1.,0.E+000,0.E+000));
#1128 = PCURVE('',#934,#1129);
#1129 = DEFINITIONAL_REPRESENTATION('',(#1130),#1134);
#1130 = LINE('',#1131,#1132);
#1131 = CARTESIAN_POINT('',(0.E+000,0.E+000));
#1132 = VECTOR('',#1133,1.);
#1133 = DIRECTION('',(0.E+000,1.));
#1134 = ( GEOMETRIC_REPRESENTATION_CONTEXT(2) 
PARAMETRIC_REPRESENTATION_CONTEXT() REPRESENTATION_CONTEXT('2D SPACE',''
  ) );
#1135 = PCURVE('',#906,#1136);
#1136 = DEFINITIONAL_REPRESENTATION('',(#1137),#1141);
#1137 = LINE('',#1138,#1139);
#1138 = CARTESIAN_POINT('',(0.E+000,100.));
#1139 = VECTOR('',#1140,1.);
#1140 = DIRECTION('',(1.,0.E+000));
#1141 = ( GEOMETRIC_REPRESENTATION_CONTEXT(2) 
PARAMETRIC_REPRESENTATION_CONTEXT() REPRESENTATION_CONTEXT('2D SPACE',''
  ) );
#1142 = ORIENTED_EDGE('',*,*,#918,.T.);
#1143 = ORIENTED_EDGE('',*,*,#1144,.T.);
#1144 = EDGE_CURVE('',#919,#1029,#1145,.T.);
#1145 = SURFACE_CURVE('',#1146,(#1150,#1157),.PCURVE_S1.);
#1146 = LINE('',#1147,#1148);
#1147 = CARTESIAN_POINT('',(0.E+000,300.,100.));
#1148 = VECTOR('',#1149,1.);
#1149 = DIRECTION('',(1.,0.E+000,0.E+000));
#1150 = PCURVE('',#934,#1151);
#1151 = DEFINITIONAL_REPRESENTATION('',(#1152),#1156);
#1152 = LINE('',#1153,#1154);
#1153 = CARTESIAN_POINT('',(100.,0.E+000));
#1154 = VECTOR('',#1155,1.);
#1155 = DIRECTION('',(0.E+000,1.));
#1156 = ( GEOMETRIC_REPRESENTATION_CONTEXT(2) 
PARAMETRIC_REPRESENTATION_CONTEXT() REPRESENTATION_CONTEXT('2D SPACE',''
  ) );
#1157 = PCURVE('',#960,#1158);
#1158 = DEFINITIONAL_REPRESENTATION('',(#1159),#1163);
#1159 = LINE('',#1160,#1161);
#1160 = CARTESIAN_POINT('',(0.E+000,100.));
#1161 = VECTOR('',#1162,1.);
#1162 = DIRECTION('',(1.,0.E+000));
#1163 = ( GEOMETRIC_REPRESENTATION_CONTEXT(2) 
PARAMETRIC_REPRESENTATION_CONTEXT() REPRESENTATION_CONTEXT('2D SPACE',''
  ) );
#1164 = ORIENTED_EDGE('',*,*,#1028,.F.);
#1165 = ADVANCED_FACE('',(#1166),#906,.F.);
#1166 = FACE_BOUND('',#1167,.F.);
#1167 = EDGE_LOOP('',(#1168,#1169,#1170,#1171));
#1168 = ORIENTED_EDGE('',*,*,#890,.F.);
#1169 = ORIENTED_EDGE('',*,*,#1075,.T.);
#1170 = ORIENTED_EDGE('',*,*,#1005,.T.);
#1171 = ORIENTED_EDGE('',*,*,#1122,.F.);
#1172 = ADVANCED_FACE('',(#1173),#960,.T.);
#1173 = FACE_BOUND('',#1174,.T.);
#1174 = EDGE_LOOP('',(#1175,#1176,#1177,#1178));
#1175 = ORIENTED_EDGE('',*,*,#946,.F.);
#1176 = ORIENTED_EDGE('',*,*,#1097,.T.);
#1177 = ORIENTED_EDGE('',*,*,#1051,.T.);
#1178 = ORIENTED_EDGE('',*,*,#1144,.F.);
#1179 = ( GEOMETRIC_REPRESENTATION_CONTEXT(3) 
GLOBAL_UNCERTAINTY_ASSIGNED_CONTEXT((#1183)) 
GLOBAL_UNIT_ASSIGNED_CONTEXT((#1180,#1181,#1182)) REPRESENTATION_CONTEXT
('Context #1','3D Context with UNIT and UNCERTAINTY') );
#1180 = ( LENGTH_UNIT() NAMED_UNIT(*) SI_UNIT(.MILLI.,.METRE.) );
#1181 = ( NAMED_UNIT(*) PLANE_ANGLE_UNIT() SI_UNIT($,.RADIAN.) );
#1182 = ( NAMED_UNIT(*) SI_UNIT($,.STERADIAN.) SOLID_ANGLE_UNIT() );
#1183 = UNCERTAINTY_MEASURE_WITH_UNIT(LENGTH_MEASURE(1.E-007),#1180,
  'distance_accuracy_value','confusion accuracy');
#1184 = PRODUCT_RELATED_PRODUCT_CATEGORY('part',$,(#845));
#1185 = SHAPE_DEFINITION_REPRESENTATION(#1186,#1192);
#1186 = PRODUCT_DEFINITION_SHAPE('','',#1187);
#1187 = PRODUCT_DEFINITION('design','',#1188,#1191);
#1188 = PRODUCT_DEFINITION_FORMATION('','',#1189);
#1189 = PRODUCT('Open CASCADE STEP translator 7.7 4',
  'Open CASCADE STEP translator 7.7 4','',(#1190));
#1190 = PRODUCT_CONTEXT('',#2,'mechanical');
#1191 = PRODUCT_DEFINITION_CONTEXT('part definition',#2,'design');
#1192 = ADVANCED_BREP_SHAPE_REPRESENTATION('',(#11,#1193),#1523);
#1193 = MANIFOLD_SOLID_BREP('',#1194);
#1194 = CLOSED_SHELL('',(#1195,#1315,#1415,#1462,#1509,#1516));
#1195 = ADVANCED_FACE('',(#1196),#1210,.F.);
#1196 = FACE_BOUND('',#1197,.F.);
#1197 = EDGE_LOOP('',(#1198,#1233,#1261,#1289));
#1198 = ORIENTED_EDGE('',*,*,#1199,.F.);
#1199 = EDGE_CURVE('',#1200,#1202,#1204,.T.);
#1200 = VERTEX_POINT('',#1201);
#1201 = CARTESIAN_POINT('',(190.,190.,-10.));
#1202 = VERTEX_POINT('',#1203);
#1203 = CARTESIAN_POINT('',(190.,228.01569808722,22.477787777821));
#1204 = SURFACE_CURVE('',#1205,(#1209,#1221),.PCURVE_S1.);
#1205 = LINE('',#1206,#1207);
#1206 = CARTESIAN_POINT('',(190.,190.,-10.));
#1207 = VECTOR('',#1208,1.);
#1208 = DIRECTION('',(0.E+000,0.760313961744,0.649555755556));
#1209 = PCURVE('',#1210,#1215);
#1210 = PLANE('',#1211);
#1211 = AXIS2_PLACEMENT_3D('',#1212,#1213,#1214);
#1212 = CARTESIAN_POINT('',(190.,190.,-10.));
#1213 = DIRECTION('',(0.E+000,-0.649555755556,0.760313961744));
#1214 = DIRECTION('',(1.,0.E+000,0.E+000));
#1215 = DEFINITIONAL_REPRESENTATION('',(#1216),#1220);
#1216 = LINE('',#1217,#1218);
#1217 = CARTESIAN_POINT('',(0.E+000,0.E+000));
#1218 = VECTOR('',#1219,1.);
#1219 = DIRECTION('',(0.E+000,1.));
#1220 = ( GEOMETRIC_REPRESENTATION_CONTEXT(2) 
PARAMETRIC_REPRESENTATION_CONTEXT() REPRESENTATION_CONTEXT('2D SPACE',''
  ) );
#1221 = PCURVE('',#1222,#1227);
#1222 = PLANE('',#1223);
#1223 = AXIS2_PLACEMENT_3D('',#1224,#1225,#1226);
#1224 = CARTESIAN_POINT('',(190.,190.,-10.));
#1225 = DIRECTION('',(1.,0.E+000,0.E+000));
#1226 = DIRECTION('',(0.E+000,-0.649555755556,0.760313961744));
#1227 = DEFINITIONAL_REPRESENTATION('',(#1228),#1232);
#1228 = LINE('',#1229,#1230);
#1229 = CARTESIAN_POINT('',(0.E+000,0.E+000));
#1230 = VECTOR('',#1231,1.);
#1231 = DIRECTION('',(0.E+000,-1.));
#1232 = ( GEOMETRIC_REPRESENTATION_CONTEXT(2) 
PARAMETRIC_REPRESENTATION_CONTEXT() REPRESENTATION_CONTEXT('2D SPACE',''
  ) );
#1233 = ORIENTED_EDGE('',*,*,#1234,.T.);
#1234 = EDGE_CURVE('',#1200,#1235,#1237,.T.);
#1235 = VERTEX_POINT('',#1236);
#1236 = CARTESIAN_POINT('',(390.,190.,-10.));
#1237 = SURFACE_CURVE('',#1238,(#1242,#1249),.PCURVE_S1.);
#1238 = LINE('',#1239,#1240);
#1239 = CARTESIAN_POINT('',(190.,190.,-10.));
#1240 = VECTOR('',#1241,1.);
#1241 = DIRECTION('',(1.,0.E+000,0.E+000));
#1242 = PCURVE('',#1210,#1243);
#1243 = DEFINITIONAL_REPRESENTATION('',(#1244),#1248);
#1244 = LINE('',#1245,#1246);
#1245 = CARTESIAN_POINT('',(0.E+000,0.E+000));
#1246 = VECTOR('',#1247,1.);
#1247 = DIRECTION('',(1.,0.E+000));
#1248 = ( GEOMETRIC_REPRESENTATION_CONTEXT(2) 
PARAMETRIC_REPRESENTATION_CONTEXT() REPRESENTATION_CONTEXT('2D SPACE',''
  ) );
#1249 = PCURVE('',#1250,#1255);
#1250 = PLANE('',#1251);
#1251 = AXIS2_PLACEMENT_3D('',#1252,#1253,#1254);
#1252 = CARTESIAN_POINT('',(190.,190.,-10.));
#1253 = DIRECTION('',(0.E+000,0.760313961744,0.649555755556));
#1254 = DIRECTION('',(0.E+000,-0.649555755556,0.760313961744));
#1255 = DEFINITIONAL_REPRESENTATION('',(#1256),#1260);
#1256 = LINE('',#1257,#1258);
#1257 = CARTESIAN_POINT('',(0.E+000,0.E+000));
#1258 = VECTOR('',#1259,1.);
#1259 = DIRECTION('',(0.E+000,1.));
#1260 = ( GEOMETRIC_REPRESENTATION_CONTEXT(2) 
PARAMETRIC_REPRESENTATION_CONTEXT() REPRESENTATION_CONTEXT('2D SPACE',''
  ) );
#1261 = ORIENTED_EDGE('',*,*,#1262,.T.);
#1262 = EDGE_CURVE('',#1235,#1263,#1265,.T.);
#1263 = VERTEX_POINT('',#1264);
#1264 = CARTESIAN_POINT('',(390.,228.01569808722,22.477787777821));
#1265 = SURFACE_CURVE('',#1266,(#1270,#1277),.PCURVE_S1.);
#1266 = LINE('',#1267,#1268);
#1267 = CARTESIAN_POINT('',(390.,190.,-10.));
#1268 = VECTOR('',#1269,1.);
#1269 = DIRECTION('',(0.E+000,0.760313961744,0.649555755556));
#1270 = PCURVE('',#1210,#1271);
#1271 = DEFINITIONAL_REPRESENTATION('',(#1272),#1276);
#1272 = LINE('',#1273,#1274);
#1273 = CARTESIAN_POINT('',(200.,0.E+000));
#1274 = VECTOR('',#1275,1.);
#1275 = DIRECTION('',(0.E+000,1.));
#1276 = ( GEOMETRIC_REPRESENTATION_CONTEXT(2) 
PARAMETRIC_REPRESENTATION_CONTEXT() REPRESENTATION_CONTEXT('2D SPACE',''
  ) );
#1277 = PCURVE('',#1278,#1283);
#1278 = PLANE('',#1279);
#1279 = AXIS2_PLACEMENT_3D('',#1280,#1281,#1282);
#1280 = CARTESIAN_POINT('',(390.,190.,-10.));
#1281 = DIRECTION('',(1.,0.E+000,0.E+000));
#1282 = DIRECTION('',(0.E+000,-0.649555755556,0.760313961744));
#1283 = DEFINITIONAL_REPRESENTATION('',(#1284),#1288);
#1284 = LINE('',#1285,#1286);
#1285 = CARTESIAN_POINT('',(0.E+000,0.E+000));
#1286 = VECTOR('',#1287,1.);
#1287 = DIRECTION('',(0.E+000,-1.));
#1288 = ( GEOMETRIC_REPRESENTATION_CONTEXT(2) 
PARAMETRIC_REPRESENTATION_CONTEXT() REPRESENTATION_CONTEXT('2D SPACE',''
  ) );
#1289 = ORIENTED_EDGE('',*,*,#1290,.F.);
#1290 = EDGE_CURVE('',#1202,#1263,#1291,.T.);
#1291 = SURFACE_CURVE('',#1292,(#1296,#1303),.PCURVE_S1.);
#1292 = LINE('',#1293,#1294);
#1293 = CARTESIAN_POINT('',(190.,228.01569808722,22.477787777821));
#1294 = VECTOR('',#1295,1.);
#1295 = DIRECTION('',(1.,0.E+000,0.E+000));
#1296 = PCURVE('',#1210,#1297);
#1297 = DEFINITIONAL_REPRESENTATION('',(#1298),#1302);
#1298 = LINE('',#1299,#1300);
#1299 = CARTESIAN_POINT('',(0.E+000,50.));
#1300 = VECTOR('',#1301,1.);
#1301 = DIRECTION('',(1.,0.E+000));
#1302 = ( GEOMETRIC_REPRESENTATION_CONTEXT(2) 
PARAMETRIC_REPRESENTATION_CONTEXT() REPRESENTATION_CONTEXT('2D SPACE',''
  ) );
#1303 = PCURVE('',#1304,#1309);
#1304 = PLANE('',#1305);
#1305 = AXIS2_PLACEMENT_3D('',#1306,#1307,#1308);
#1306 = CARTESIAN_POINT('',(190.,228.01569808722,22.477787777821));
#1307 = DIRECTION('',(0.E+000,0.760313961744,0.649555755556));
#1308 = DIRECTION('',(0.E+000,-0.649555755556,0.760313961744));
#1309 = DEFINITIONAL_REPRESENTATION('',(#1310),#1314);
#1310 = LINE('',#1311,#1312);
#1311 = CARTESIAN_POINT('',(0.E+000,0.E+000));
#1312 = VECTOR('',#1313,1.);
#1313 = DIRECTION('',(0.E+000,1.));
#1314 = ( GEOMETRIC_REPRESENTATION_CONTEXT(2) 
PARAMETRIC_REPRESENTATION_CONTEXT() REPRESENTATION_CONTEXT('2D SPACE',''
  ) );
#1315 = ADVANCED_FACE('',(#1316),#1330,.T.);
#1316 = FACE_BOUND('',#1317,.T.);
#1317 = EDGE_LOOP('',(#1318,#1348,#1371,#1394));
#1318 = ORIENTED_EDGE('',*,*,#1319,.F.);
#1319 = EDGE_CURVE('',#1320,#1322,#1324,.T.);
#1320 = VERTEX_POINT('',#1321);
#1321 = CARTESIAN_POINT('',(190.,157.52221222217,28.015698087222));
#1322 = VERTEX_POINT('',#1323);
#1323 = CARTESIAN_POINT('',(190.,195.5379103094,60.493485865043));
#1324 = SURFACE_CURVE('',#1325,(#1329,#1341),.PCURVE_S1.);
#1325 = LINE('',#1326,#1327);
#1326 = CARTESIAN_POINT('',(190.,157.52221222217,28.015698087222));
#1327 = VECTOR('',#1328,1.);
#1328 = DIRECTION('',(0.E+000,0.760313961744,0.649555755556));
#1329 = PCURVE('',#1330,#1335);
#1330 = PLANE('',#1331);
#1331 = AXIS2_PLACEMENT_3D('',#1332,#1333,#1334);
#1332 = CARTESIAN_POINT('',(190.,157.52221222217,28.015698087222));
#1333 = DIRECTION('',(0.E+000,-0.649555755556,0.760313961744));
#1334 = DIRECTION('',(1.,0.E+000,0.E+000));
#1335 = DEFINITIONAL_REPRESENTATION('',(#1336),#1340);
#1336 = LINE('',#1337,#1338);
#1337 = CARTESIAN_POINT('',(0.E+000,0.E+000));
#1338 = VECTOR('',#1339,1.);
#1339 = DIRECTION('',(0.E+000,1.));
#1340 = ( GEOMETRIC_REPRESENTATION_CONTEXT(2) 
PARAMETRIC_REPRESENTATION_CONTEXT() REPRESENTATION_CONTEXT('2D SPACE',''
  ) );
#1341 = PCURVE('',#1222,#1342);
#1342 = DEFINITIONAL_REPRESENTATION('',(#1343),#1347);
#1343 = LINE('',#1344,#1345);
#1344 = CARTESIAN_POINT('',(50.,0.E+000));
#1345 = VECTOR('',#1346,1.);
#1346 = DIRECTION('',(0.E+000,-1.));
#1347 = ( GEOMETRIC_REPRESENTATION_CONTEXT(2) 
PARAMETRIC_REPRESENTATION_CONTEXT() REPRESENTATION_CONTEXT('2D SPACE',''
  ) );
#1348 = ORIENTED_EDGE('',*,*,#1349,.T.);
#1349 = EDGE_CURVE('',#1320,#1350,#1352,.T.);
#1350 = VERTEX_POINT('',#1351);
#1351 = CARTESIAN_POINT('',(390.,157.52221222217,28.015698087222));
#1352 = SURFACE_CURVE('',#1353,(#1357,#1364),.PCURVE_S1.);
#1353 = LINE('',#1354,#1355);
#1354 = CARTESIAN_POINT('',(190.,157.52221222217,28.015698087222));
#1355 = VECTOR('',#1356,1.);
#1356 = DIRECTION('',(1.,0.E+000,0.E+000));
#1357 = PCURVE('',#1330,#1358);
#1358 = DEFINITIONAL_REPRESENTATION('',(#1359),#1363);
#1359 = LINE('',#1360,#1361);
#1360 = CARTESIAN_POINT('',(0.E+000,0.E+000));
#1361 = VECTOR('',#1362,1.);
#1362 = DIRECTION('',(1.,0.E+000));
#1363 = ( GEOMETRIC_REPRESENTATION_CONTEXT(2) 
PARAMETRIC_REPRESENTATION_CONTEXT() REPRESENTATION_CONTEXT('2D SPACE',''
  ) );
#1364 = PCURVE('',#1250,#1365);
#1365 = DEFINITIONAL_REPRESENTATION('',(#1366),#1370);
#1366 = LINE('',#1367,#1368);
#1367 = CARTESIAN_POINT('',(50.,0.E+000));
#1368 = VECTOR('',#1369,1.);
#1369 = DIRECTION('',(0.E+000,1.));
#1370 = ( GEOMETRIC_REPRESENTATION_CONTEXT(2) 
PARAMETRIC_REPRESENTATION_CONTEXT() REPRESENTATION_CONTEXT('2D SPACE',''
  ) );
#1371 = ORIENTED_EDGE('',*,*,#1372,.T.);
#1372 = EDGE_CURVE('',#1350,#1373,#1375,.T.);
#1373 = VERTEX_POINT('',#1374);
#1374 = CARTESIAN_POINT('',(390.,195.5379103094,60.493485865043));
#1375 = SURFACE_CURVE('',#1376,(#1380,#1387),.PCURVE_S1.);
#1376 = LINE('',#1377,#1378);
#1377 = CARTESIAN_POINT('',(390.,157.52221222217,28.015698087222));
#1378 = VECTOR('',#1379,1.);
#1379 = DIRECTION('',(0.E+000,0.760313961744,0.649555755556));
#1380 = PCURVE('',#1330,#1381);
#1381 = DEFINITIONAL_REPRESENTATION('',(#1382),#1386);
#1382 = LINE('',#1383,#1384);
#1383 = CARTESIAN_POINT('',(200.,0.E+000));
#1384 = VECTOR('',#1385,1.);
#1385 = DIRECTION('',(0.E+000,1.));
#1386 = ( GEOMETRIC_REPRESENTATION_CONTEXT(2) 
PARAMETRIC_REPRESENTATION_CONTEXT() REPRESENTATION_CONTEXT('2D SPACE',''
  ) );
#1387 = PCURVE('',#1278,#1388);
#1388 = DEFINITIONAL_REPRESENTATION('',(#1389),#1393);
#1389 = LINE('',#1390,#1391);
#1390 = CARTESIAN_POINT('',(50.,0.E+000));
#1391 = VECTOR('',#1392,1.);
#1392 = DIRECTION('',(0.E+000,-1.));
#1393 = ( GEOMETRIC_REPRESENTATION_CONTEXT(2) 
PARAMETRIC_REPRESENTATION_CONTEXT() REPRESENTATION_CONTEXT('2D SPACE',''
  ) );
#1394 = ORIENTED_EDGE('',*,*,#1395,.F.);
#1395 = EDGE_CURVE('',#1322,#1373,#1396,.T.);
#1396 = SURFACE_CURVE('',#1397,(#1401,#1408),.PCURVE_S1.);
#1397 = LINE('',#1398,#1399);
#1398 = CARTESIAN_POINT('',(190.,195.5379103094,60.493485865043));
#1399 = VECTOR('',#1400,1.);
#1400 = DIRECTION('',(1.,0.E+000,0.E+000));
#1401 = PCURVE('',#1330,#1402);
#1402 = DEFINITIONAL_REPRESENTATION('',(#1403),#1407);
#1403 = LINE('',#1404,#1405);
#1404 = CARTESIAN_POINT('',(0.E+000,50.));
#1405 = VECTOR('',#1406,1.);
#1406 = DIRECTION('',(1.,0.E+000));
#1407 = ( GEOMETRIC_REPRESENTATION_CONTEXT(2) 
PARAMETRIC_REPRESENTATION_CONTEXT() REPRESENTATION_CONTEXT('2D SPACE',''
  ) );
#1408 = PCURVE('',#1304,#1409);
#1409 = DEFINITIONAL_REPRESENTATION('',(#1410),#1414);
#1410 = LINE('',#1411,#1412);
#1411 = CARTESIAN_POINT('',(50.,0.E+000));
#1412 = VECTOR('',#1413,1.);
#1413 = DIRECTION('',(0.E+000,1.));
#1414 = ( GEOMETRIC_REPRESENTATION_CONTEXT(2) 
PARAMETRIC_REPRESENTATION_CONTEXT() REPRESENTATION_CONTEXT('2D SPACE',''
  ) );
#1415 = ADVANCED_FACE('',(#1416),#1222,.F.);
#1416 = FACE_BOUND('',#1417,.F.);
#1417 = EDGE_LOOP('',(#1418,#1439,#1440,#1461));
#1418 = ORIENTED_EDGE('',*,*,#1419,.F.);
#1419 = EDGE_CURVE('',#1200,#1320,#1420,.T.);
#1420 = SURFACE_CURVE('',#1421,(#1425,#1432),.PCURVE_S1.);
#1421 = LINE('',#1422,#1423);
#1422 = CARTESIAN_POINT('',(190.,190.,-10.));
#1423 = VECTOR('',#1424,1.);
#1424 = DIRECTION('',(0.E+000,-0.649555755556,0.760313961744));
#1425 = PCURVE('',#1222,#1426);
#1426 = DEFINITIONAL_REPRESENTATION('',(#1427),#1431);
#1427 = LINE('',#1428,#1429);
#1428 = CARTESIAN_POINT('',(0.E+000,0.E+000));
#1429 = VECTOR('',#1430,1.);
#1430 = DIRECTION('',(1.,0.E+000));
#1431 = ( GEOMETRIC_REPRESENTATION_CONTEXT(2) 
PARAMETRIC_REPRESENTATION_CONTEXT() REPRESENTATION_CONTEXT('2D SPACE',''
  ) );
#1432 = PCURVE('',#1250,#1433);
#1433 = DEFINITIONAL_REPRESENTATION('',(#1434),#1438);
#1434 = LINE('',#1435,#1436);
#1435 = CARTESIAN_POINT('',(0.E+000,0.E+000));
#1436 = VECTOR('',#1437,1.);
#1437 = DIRECTION('',(1.,0.E+000));
#1438 = ( GEOMETRIC_REPRESENTATION_CONTEXT(2) 
PARAMETRIC_REPRESENTATION_CONTEXT() REPRESENTATION_CONTEXT('2D SPACE',''
  ) );
#1439 = ORIENTED_EDGE('',*,*,#1199,.T.);
#1440 = ORIENTED_EDGE('',*,*,#1441,.T.);
#1441 = EDGE_CURVE('',#1202,#1322,#1442,.T.);
#1442 = SURFACE_CURVE('',#1443,(#1447,#1454),.PCURVE_S1.);
#1443 = LINE('',#1444,#1445);
#1444 = CARTESIAN_POINT('',(190.,228.01569808722,22.477787777821));
#1445 = VECTOR('',#1446,1.);
#1446 = DIRECTION('',(0.E+000,-0.649555755556,0.760313961744));
#1447 = PCURVE('',#1222,#1448);
#1448 = DEFINITIONAL_REPRESENTATION('',(#1449),#1453);
#1449 = LINE('',#1450,#1451);
#1450 = CARTESIAN_POINT('',(0.E+000,-50.));
#1451 = VECTOR('',#1452,1.);
#1452 = DIRECTION('',(1.,0.E+000));
#1453 = ( GEOMETRIC_REPRESENTATION_CONTEXT(2) 
PARAMETRIC_REPRESENTATION_CONTEXT() REPRESENTATION_CONTEXT('2D SPACE',''
  ) );
#1454 = PCURVE('',#1304,#1455);
#1455 = DEFINITIONAL_REPRESENTATION('',(#1456),#1460);
#1456 = LINE('',#1457,#1458);
#1457 = CARTESIAN_POINT('',(0.E+000,0.E+000));
#1458 = VECTOR('',#1459,1.);
#1459 = DIRECTION('',(1.,0.E+000));
#1460 = ( GEOMETRIC_REPRESENTATION_CONTEXT(2) 
PARAMETRIC_REPRESENTATION_CONTEXT() REPRESENTATION_CONTEXT('2D SPACE',''
  ) );
#1461 = ORIENTED_EDGE('',*,*,#1319,.F.);
#1462 = ADVANCED_FACE('',(#1463),#1278,.T.);
#1463 = FACE_BOUND('',#1464,.T.);
#1464 = EDGE_LOOP('',(#1465,#1486,#1487,#1508));
#1465 = ORIENTED_EDGE('',*,*,#1466,.F.);
#1466 = EDGE_CURVE('',#1235,#1350,#1467,.T.);
#1467 = SURFACE_CURVE('',#1468,(#1472,#1479),.PCURVE_S1.);
#1468 = LINE('',#1469,#1470);
#1469 = CARTESIAN_POINT('',(390.,190.,-10.));
#1470 = VECTOR('',#1471,1.);
#1471 = DIRECTION('',(0.E+000,-0.649555755556,0.760313961744));
#1472 = PCURVE('',#1278,#1473);
#1473 = DEFINITIONAL_REPRESENTATION('',(#1474),#1478);
#1474 = LINE('',#1475,#1476);
#1475 = CARTESIAN_POINT('',(0.E+000,0.E+000));
#1476 = VECTOR('',#1477,1.);
#1477 = DIRECTION('',(1.,0.E+000));
#1478 = ( GEOMETRIC_REPRESENTATION_CONTEXT(2) 
PARAMETRIC_REPRESENTATION_CONTEXT() REPRESENTATION_CONTEXT('2D SPACE',''
  ) );
#1479 = PCURVE('',#1250,#1480);
#1480 = DEFINITIONAL_REPRESENTATION('',(#1481),#1485);
#1481 = LINE('',#1482,#1483);
#1482 = CARTESIAN_POINT('',(0.E+000,200.));
#1483 = VECTOR('',#1484,1.);
#1484 = DIRECTION('',(1.,0.E+000));
#1485 = ( GEOMETRIC_REPRESENTATION_CONTEXT(2) 
PARAMETRIC_REPRESENTATION_CONTEXT() REPRESENTATION_CONTEXT('2D SPACE',''
  ) );
#1486 = ORIENTED_EDGE('',*,*,#1262,.T.);
#1487 = ORIENTED_EDGE('',*,*,#1488,.T.);
#1488 = EDGE_CURVE('',#1263,#1373,#1489,.T.);
#1489 = SURFACE_CURVE('',#1490,(#1494,#1501),.PCURVE_S1.);
#1490 = LINE('',#1491,#1492);
#1491 = CARTESIAN_POINT('',(390.,228.01569808722,22.477787777821));
#1492 = VECTOR('',#1493,1.);
#1493 = DIRECTION('',(0.E+000,-0.649555755556,0.760313961744));
#1494 = PCURVE('',#1278,#1495);
#1495 = DEFINITIONAL_REPRESENTATION('',(#1496),#1500);
#1496 = LINE('',#1497,#1498);
#1497 = CARTESIAN_POINT('',(0.E+000,-50.));
#1498 = VECTOR('',#1499,1.);
#1499 = DIRECTION('',(1.,0.E+000));
#1500 = ( GEOMETRIC_REPRESENTATION_CONTEXT(2) 
PARAMETRIC_REPRESENTATION_CONTEXT() REPRESENTATION_CONTEXT('2D SPACE',''
  ) );
#1501 = PCURVE('',#1304,#1502);
#1502 = DEFINITIONAL_REPRESENTATION('',(#1503),#1507);
#1503 = LINE('',#1504,#1505);
#1504 = CARTESIAN_POINT('',(0.E+000,200.));
#1505 = VECTOR('',#1506,1.);
#1506 = DIRECTION('',(1.,0.E+000));
#1507 = ( GEOMETRIC_REPRESENTATION_CONTEXT(2) 
PARAMETRIC_REPRESENTATION_CONTEXT() REPRESENTATION_CONTEXT('2D SPACE',''
  ) );
#1508 = ORIENTED_EDGE('',*,*,#1372,.F.);
#1509 = ADVANCED_FACE('',(#1510),#1250,.F.);
#1510 = FACE_BOUND('',#1511,.F.);
#1511 = EDGE_LOOP('',(#1512,#1513,#1514,#1515));
#1512 = ORIENTED_EDGE('',*,*,#1234,.F.);
#1513 = ORIENTED_EDGE('',*,*,#1419,.T.);
#1514 = ORIENTED_EDGE('',*,*,#1349,.T.);
#1515 = ORIENTED_EDGE('',*,*,#1466,.F.);
#1516 = ADVANCED_FACE('',(#1517),#1304,.T.);
#1517 = FACE_BOUND('',#1518,.T.);
#1518 = EDGE_LOOP('',(#1519,#1520,#1521,#1522));
#1519 = ORIENTED_EDGE('',*,*,#1290,.F.);
#1520 = ORIENTED_EDGE('',*,*,#1441,.T.);
#1521 = ORIENTED_EDGE('',*,*,#1395,.T.);
#1522 = ORIENTED_EDGE('',*,*,#1488,.F.);
#1523 = ( GEOMETRIC_REPRESENTATION_CONTEXT(3) 
GLOBAL_UNCERTAINTY_ASSIGNED_CONTEXT((#1527)) 
GLOBAL_UNIT_ASSIGNED_CONTEXT((#1524,#1525,#1526)) REPRESENTATION_CONTEXT
('Context #1','3D Context with UNIT and UNCERTAINTY') );
#1524 = ( LENGTH_UNIT() NAMED_UNIT(*) SI_UNIT(.MILLI.,.METRE.) );
#1525 = ( NAMED_UNIT(*) PLANE_ANGLE_UNIT() SI_UNIT($,.RADIAN.) );
#1526 = ( NAMED_UNIT(*) SI_UNIT($,.STERADIAN.) SOLID_ANGLE_UNIT() );
#1527 = UNCERTAINTY_MEASURE_WITH_UNIT(LENGTH_MEASURE(1.E-007),#1524,
  'distance_accuracy_value','confusion accuracy');
#1528 = PRODUCT_RELATED_PRODUCT_CATEGORY('part',$,(#1189));
ENDSEC;
END-ISO-10303-21;
