                                                                        S0000001
,,31HOpen CASCADE IGES processor 7.7,13HFilename.iges,                  G0000001
16HOpen CASCADE 7.7,31HOpen CASCADE IGES processor 7.7,32,308,15,308,15,G0000002
,1.,2,2HMM,1,0.01,15H20260213.193238,1.07783E-007,390.,7HUsuario,,11,0, G0000003
15H20260213.193238,;                                                    G0000004
     402       1       0       0       0       0       0       000000000D0000001
     402       0       0       1       1                               0D0000002
     144       2       0       0       0       0       0       000020000D0000003
     144       0       0       1       0                               0D0000004
     108       3       0       0       0       0       0       000010000D0000005
     108       0       0       2       0                               0D0000006
     142       5       0       0       0       0       0       000010500D0000007
     142       0       0       1       0                               0D0000008
     102       6       0       0       0       0       0       000010000D0000009
     102       0       0       1       0                               0D0000010
     110       7       0       0       0       0       0       000010000D0000011
     110       0       0       2       0                               0D0000012
     110       9       0       0       0       0       0       000010000D0000013
     110       0       0       1       0                               0D0000014
     110      10       0       0       0       0       0       000010000D0000015
     110       0       0       1       0                               0D0000016
     110      11       0       0       0       0       0       000010000D0000017
     110       0       0       1       0                               0D0000018
     110      12       0       0       0       0       0       000010000D0000019
     110       0       0       1       0                               0D0000020
     110      13       0       0       0       0       0       000010000D0000021
     110       0       0       2       0                               0D0000022
     144      15       0       0       0       0       0       000020000D0000023
     144       0       0       1       0                               0D0000024
     108      16       0       0       0       0       0       000010000D0000025
     108       0       0       2       0                               0D0000026
     142      18       0       0       0       0       0       000010500D0000027
     142       0       0       1       0                               0D0000028
     102      19       0       0       0       0       0       000010000D0000029
     102       0       0       1       0                               0D0000030
     110      20       0       0       0       0       0       000010000D0000031
     110       0       0       1       0                               0D0000032
     110      21       0       0       0       0       0       000010000D0000033
     110       0       0       2       0                               0D0000034
     100      23       0       0       0       0      37       000010000D0000035
     100       0       0       2       0                               0D0000036
     124      25       0       0       0       0       0       000000000D0000037
     124       0       0       2       0                               0D0000038
     110      27       0       0       0       0       0       000010000D0000039
     110       0       0       1       0                               0D0000040
     144      28       0       0       0       0       0       000020000D0000041
     144       0       0       1       0                               0D0000042
     108      29       0       0       0       0       0       000010000D0000043
     108       0       0       1       0                               0D0000044
     142      30       0       0       0       0       0       000010500D0000045
     142       0       0       1       0                               0D0000046
     102      31       0       0       0       0       0       000010000D0000047
     102       0       0       1       0                               0D0000048
     110      32       0       0       0       0       0       000010000D0000049
     110       0       0       1       0                               0D0000050
     110      33       0       0       0       0       0       000010000D0000051
     110       0       0       1       0                               0D0000052
     110      34       0       0       0       0       0       000010000D0000053
     110       0       0       1       0                               0D0000054
     100      35       0       0       0       0      57       000010000D0000055
     100       0       0       2       0                               0D0000056
     124      37       0       0       0       0       0       000000000D0000057
     124       0       0       2       0                               0D0000058
     110      39       0       0       0       0       0       000010000D0000059
     110       0       0       1       0                               0D0000060
     144      40       0       0       0       0       0       000020000D0000061
     144       0       0       1       0                               0D0000062
     108      41       0       0       0       0       0       000010000D0000063
     108       0       0       1       0                               0D0000064
     142      42       0       0       0       0       0       000010500D0000065
     142       0       0       1       0                               0D0000066
     102      43       0       0       0       0       0       000010000D0000067
     102       0       0       1       0                               0D0000068
     110      44       0       0       0       0       0       000010000D0000069
     110       0       0       1       0                               0D0000070
     110      45       0       0       0       0       0       000010000D0000071
     110       0       0       1       0                               0D0000072
     110      46       0       0       0       0       0       000010000D0000073
     110       0       0       1       0                               0D0000074
     110      47       0       0       0       0       0       000010000D0000075
     110       0       0       1       0                               0D0000076
     144      48       0       0       0       0       0       000020000D0000077
     144       0       0       1       0                               0D0000078
     108      49       0       0       0       0       0       000010000D0000079
     108       0       0       2       0                               0D0000080
     142      51       0       0       0       0       0       000010500D0000081
     142       0       0       1       0                               0D0000082
     102      52       0       0       0       0       0       000010000D0000083
     102       0       0       1       0                               0D0000084
     110      53       0       0       0       0       0       000010000D0000085
     110       0       0       1       0                               0D0000086
     110      54       0       0       0       0       0       000010000D0000087
     110       0       0       1       0                               0D0000088
     110      55       0       0       0       0       0       000010000D0000089
     110       0       0       1       0                               0D0000090
     110      56       0       0       0       0       0       000010000D0000091
     110       0       0       1       0                               0D0000092
     144      57       0       0       0       0       0       000020000D0000093
     144       0       0       1       0                               0D0000094
     108      58       0       0       0       0       0       000010000D0000095
     108       0       0       2       0                               0D0000096
     142      60       0       0       0       0       0       000010500D0000097
     142       0       0       1       0                               0D0000098
     102      61       0       0       0       0       0       000010000D0000099
     102       0       0       1       0                               0D0000100
     110      62       0       0       0       0       0       000010000D0000101
     110       0       0       2       0                               0D0000102
     110      64       0       0       0       0       0       000010000D0000103
     110       0       0       2       0                               0D0000104
     110      66       0       0       0       0       0       000010000D0000105
     110       0       0       1       0                               0D0000106
     110      67       0       0       0       0       0       000010000D0000107
     110       0       0       1       0                               0D0000108
     100      68       0       0       0       0     111       000010000D0000109
     100       0       0       2       0                               0D0000110
     124      70       0       0       0       0       0       000000000D0000111
     124       0       0       2       0                               0D0000112
     144      72       0       0       0       0       0       000020000D0000113
     144       0       0       1       0                               0D0000114
     108      73       0       0       0       0       0       000010000D0000115
     108       0       0       2       0                               0D0000116
     142      75       0       0       0       0       0       000010500D0000117
     142       0       0       1       0                               0D0000118
     102      76       0       0       0       0       0       000010000D0000119
     102       0       0       1       0                               0D0000120
     110      77       0       0       0       0       0       000010000D0000121
     110       0       0       2       0                               0D0000122
     110      79       0       0       0       0       0       000010000D0000123
     110       0       0       2       0                               0D0000124
     100      81       0       0       0       0     127       000010000D0000125
     100       0       0       2       0                               0D0000126
     124      83       0       0       0       0       0       000000000D0000127
     124       0       0       2       0                               0D0000128
     110      85       0       0       0       0       0       000010000D0000129
     110       0       0       2       0                               0D0000130
     144      87       0       0       0       0       0       000020000D0000131
     144       0       0       1       0                               0D0000132
     120      88       0       0       0       0     135       000010000D0000133
     120       0       0       1       0                               0D0000134
     124      89       0       0       0       0       0       000000000D0000135
     124       0       0       2       1                               0D0000136
     110      91       0       0       0       0       0       000010000D0000137
     110       0       0       1       0                               0D0000138
     100      92       0       0       0       0     141       000010000D0000139
     100       0       0       2       0                               0D0000140
     124      94       0       0       0       0       0       000000000D0000141
     124       0       0       2       0                               0D0000142
     142      96       0       0       0       0       0       000010500D0000143
     142       0       0       1       0                               0D0000144
     102      97       0       0       0       0       0       000010000D0000145
     102       0       0       1       0                               0D0000146
     126      98       0       0       0       0       0       000010000D0000147
     126       0       0      23       0                               0D0000148
     126     121       0       0       0       0       0       000010000D0000149
     126       0       0      46       0                               0D0000150
     110     167       0       0       0       0       0       000010000D0000151
     110       0       0       2       0                               0D0000152
     110     169       0       0       0       0       0       000010000D0000153
     110       0       0       2       0                               0D0000154
     126     171       0       0       0       0       0       000010000D0000155
     126       0       0      17       0                               0D0000156
     102     188       0       0       0       0       0       000010000D0000157
     102       0       0       1       0                               0D0000158
     100     189       0       0       0       0     161       000010000D0000159
     100       0       0       2       0                               0D0000160
     124     191       0       0       0       0       0       000000000D0000161
     124       0       0       2       0                               0D0000162
     100     193       0       0       0       0     165       000010000D0000163
     100       0       0       2       0                               0D0000164
     124     195       0       0       0       0       0       000000000D0000165
     124       0       0       2       0                               0D0000166
     100     197       0       0       0       0     169       000010000D0000167
     100       0       0       2       0                               0D0000168
     124     199       0       0       0       0       0       000000000D0000169
     124       0       0       2       0                               0D0000170
     100     201       0       0       0       0     173       000010000D0000171
     100       0       0       2       0                               0D0000172
     124     203       0       0       0       0       0       000000000D0000173
     124       0       0       2       0                               0D0000174
     100     205       0       0       0       0     177       000010000D0000175
     100       0       0       2       0                               0D0000176
     124     207       0       0       0       0       0       000000000D0000177
     124       0       0       2       0                               0D0000178
     144     209       0       0       0       0       0       000020000D0000179
     144       0       0       1       0                               0D0000180
     108     210       0       0       0       0       0       000010000D0000181
     108       0       0       1       0                               0D0000182
     142     211       0       0       0       0       0       000010500D0000183
     142       0       0       1       0                               0D0000184
     102     212       0       0       0       0       0       000010000D0000185
     102       0       0       1       0                               0D0000186
     110     213       0       0       0       0       0       000010000D0000187
     110       0       0       1       0                               0D0000188
     110     214       0       0       0       0       0       000010000D0000189
     110       0       0       1       0                               0D0000190
     110     215       0       0       0       0       0       000010000D0000191
     110       0       0       1       0                               0D0000192
     110     216       0       0       0       0       0       000010000D0000193
     110       0       0       1       0                               0D0000194
     100     217       0       0       0       0     197       000010000D0000195
     100       0       0       2       0                               0D0000196
     124     219       0       0       0       0       0       000000000D0000197
     124       0       0       2       0                               0D0000198
     144     221       0       0       0       0       0       000000000D0000199
     144       0       0       1       0                               0D0000200
     120     222       0       0       0       0     203       000010000D0000201
     120       0       0       1       0                               0D0000202
     124     223       0       0       0       0       0       000000000D0000203
     124       0       0       2       0                               0D0000204
     110     225       0       0       0       0       0       000010000D0000205
     110       0       0       1       0                               0D0000206
     100     226       0       0       0       0     209       000010000D0000207
     100       0       0       2       0                               0D0000208
     124     228       0       0       0       0       0       000000000D0000209
     124       0       0       2       0                               0D0000210
     142     230       0       0       0       0       0       000010500D0000211
     142       0       0       1       0                               0D0000212
     102     231       0       0       0       0       0       000010000D0000213
     102       0       0       1       0                               0D0000214
     110     232       0       0       0       0       0       000010000D0000215
     110       0       0       2       0                               0D0000216
     110     234       0       0       0       0       0       000010000D0000217
     110       0       0       2       0                               0D0000218
     102     236       0       0       0       0       0       000010000D0000219
     102       0       0       1       0                               0D0000220
     100     237       0       0       0       0     223       000010000D0000221
     100       0       0       1       0                               0D0000222
     124     238       0       0       0       0       0       000000000D0000223
     124       0       0       2       0                               0D0000224
     100     240       0       0       0       0     227       000010000D0000225
     100       0       0       1       0                               0D0000226
     124     241       0       0       0       0       0       000000000D0000227
     124       0       0       2       0                               0D0000228
     402     243       0       0       0       0       0       000000000D0000229
     402       0       0       1       1                               0D0000230
     144     244       0       0       0       0       0       000020000D0000231
     144       0       0       1       0                               0D0000232
     108     245       0       0       0       0       0       000010000D0000233
     108       0       0       2       0                               0D0000234
     142     247       0       0       0       0       0       000010500D0000235
     142       0       0       1       0                               0D0000236
     102     248       0       0       0       0       0       000010000D0000237
     102       0       0       1       0                               0D0000238
     110     249       0       0       0       0       0       000010000D0000239
     110       0       0       1       0                               0D0000240
     110     250       0       0       0       0       0       000010000D0000241
     110       0       0       1       0                               0D0000242
     110     251       0       0       0       0       0       000010000D0000243
     110       0       0       1       0                               0D0000244
     110     252       0       0       0       0       0       000010000D0000245
     110       0       0       1       0                               0D0000246
     144     253       0       0       0       0       0       000020000D0000247
     144       0       0       1       0                               0D0000248
     108     254       0       0       0       0       0       000010000D0000249
     108       0       0       1       0                               0D0000250
     142     255       0       0       0       0       0       000010500D0000251
     142       0       0       1       0                               0D0000252
     102     256       0       0       0       0       0       000010000D0000253
     102       0       0       1       0                               0D0000254
     110     257       0       0       0       0       0       000010000D0000255
     110       0       0       1       0                               0D0000256
     110     258       0       0       0       0       0       000010000D0000257
     110       0       0       1       0                               0D0000258
     110     259       0       0       0       0       0       000010000D0000259
     110       0       0       1       0                               0D0000260
     110     260       0       0       0       0       0       000010000D0000261
     110       0       0       1       0                               0D0000262
     144     261       0       0       0       0       0       000020000D0000263
     144       0       0       1       0                               0D0000264
     108     262       0       0       0       0       0       000010000D0000265
     108       0       0       1       0                               0D0000266
     142     263       0       0       0       0       0       000010500D0000267
     142       0       0       1       0                               0D0000268
     102     264       0       0       0       0       0       000010000D0000269
     102       0       0       1       0                               0D0000270
     110     265       0       0       0       0       0       000010000D0000271
     110       0       0       1       0                               0D0000272
     110     266       0       0       0       0       0       000010000D0000273
     110       0       0       1       0                               0D0000274
     110     267       0       0       0       0       0       000010000D0000275
     110       0       0       1       0                               0D0000276
     110     268       0       0       0       0       0       000010000D0000277
     110       0       0       1       0                               0D0000278
     144     269       0       0       0       0       0       000020000D0000279
     144       0       0       1       0                               0D0000280
     108     270       0       0       0       0       0       000010000D0000281
     108       0       0       1       0                               0D0000282
     142     271       0       0       0       0       0       000010500D0000283
     142       0       0       1       0                               0D0000284
     102     272       0       0       0       0       0       000010000D0000285
     102       0       0       1       0                               0D0000286
     110     273       0       0       0       0       0       000010000D0000287
     110       0       0       1       0                               0D0000288
     110     274       0       0       0       0       0       000010000D0000289
     110       0       0       1       0                               0D0000290
     110     275       0       0       0       0       0       000010000D0000291
     110       0       0       1       0                               0D0000292
     110     276       0       0       0       0       0       000010000D0000293
     110       0       0       1       0                               0D0000294
     144     277       0       0       0       0       0       000020000D0000295
     144       0       0       1       0                               0D0000296
     108     278       0       0       0       0       0       000010000D0000297
     108       0       0       2       0                               0D0000298
     142     280       0       0       0       0       0       000010500D0000299
     142       0       0       1       0                               0D0000300
     102     281       0       0       0       0       0       000010000D0000301
     102       0       0       1       0                               0D0000302
     110     282       0       0       0       0       0       000010000D0000303
     110       0       0       1       0                               0D0000304
     110     283       0       0       0       0       0       000010000D0000305
     110       0       0       1       0                               0D0000306
     110     284       0       0       0       0       0       000010000D0000307
     110       0       0       1       0                               0D0000308
     110     285       0       0       0       0       0       000010000D0000309
     110       0       0       1       0                               0D0000310
     144     286       0       0       0       0       0       000020000D0000311
     144       0       0       1       0                               0D0000312
     108     287       0       0       0       0       0       000010000D0000313
     108       0       0       1       0                               0D0000314
     142     288       0       0       0       0       0       000010500D0000315
     142       0       0       1       0                               0D0000316
     102     289       0       0       0       0       0       000010000D0000317
     102       0       0       1       0                               0D0000318
     110     290       0       0       0       0       0       000010000D0000319
     110       0       0       1       0                               0D0000320
     110     291       0       0       0       0       0       000010000D0000321
     110       0       0       1       0                               0D0000322
     110     292       0       0       0       0       0       000010000D0000323
     110       0       0       1       0                               0D0000324
     110     293       0       0       0       0       0       000010000D0000325
     110       0       0       1       0                               0D0000326
     402     294       0       0       0       0       0       000000000D0000327
     402       0       0       1       1                               0D0000328
     144     295       0       0       0       0       0       000020000D0000329
     144       0       0       1       0                               0D0000330
     108     296       0       0       0       0       0       000010000D0000331
     108       0       0       2       0                               0D0000332
     142     298       0       0       0       0       0       000010500D0000333
     142       0       0       1       0                               0D0000334
     102     299       0       0       0       0       0       000010000D0000335
     102       0       0       1       0                               0D0000336
     110     300       0       0       0       0       0       000010000D0000337
     110       0       0       1       0                               0D0000338
     110     301       0       0       0       0       0       000010000D0000339
     110       0       0       1       0                               0D0000340
     110     302       0       0       0       0       0       000010000D0000341
     110       0       0       2       0                               0D0000342
     110     304       0       0       0       0       0       000010000D0000343
     110       0       0       1       0                               0D0000344
     144     305       0       0       0       0       0       000020000D0000345
     144       0       0       1       0                               0D0000346
     108     306       0       0       0       0       0       000010000D0000347
     108       0       0       2       0                               0D0000348
     142     308       0       0       0       0       0       000010500D0000349
     142       0       0       1       0                               0D0000350
     102     309       0       0       0       0       0       000010000D0000351
     102       0       0       1       0                               0D0000352
     110     310       0       0       0       0       0       000010000D0000353
     110       0       0       2       0                               0D0000354
     110     312       0       0       0       0       0       000010000D0000355
     110       0       0       2       0                               0D0000356
     110     314       0       0       0       0       0       000010000D0000357
     110       0       0       2       0                               0D0000358
     110     316       0       0       0       0       0       000010000D0000359
     110       0       0       2       0                               0D0000360
     144     318       0       0       0       0       0       000020000D0000361
     144       0       0       1       0                               0D0000362
     108     319       0       0       0       0       0       000010000D0000363
     108       0       0       1       0                               0D0000364
     142     320       0       0       0       0       0       000010500D0000365
     142       0       0       1       0                               0D0000366
     102     321       0       0       0       0       0       000010000D0000367
     102       0       0       1       0                               0D0000368
     110     322       0       0       0       0       0       000010000D0000369
     110       0       0       1       0                               0D0000370
     110     323       0       0       0       0       0       000010000D0000371
     110       0       0       1       0                               0D0000372
     110     324       0       0       0       0       0       000010000D0000373
     110       0       0       2       0                               0D0000374
     110     326       0       0       0       0       0       000010000D0000375
     110       0       0       2       0                               0D0000376
     144     328       0       0       0       0       0       000020000D0000377
     144       0       0       1       0                               0D0000378
     108     329       0       0       0       0       0       000010000D0000379
     108       0       0       1       0                               0D0000380
     142     330       0       0       0       0       0       000010500D0000381
     142       0       0       1       0                               0D0000382
     102     331       0       0       0       0       0       000010000D0000383
     102       0       0       1       0                               0D0000384
     110     332       0       0       0       0       0       000010000D0000385
     110       0       0       1       0                               0D0000386
     110     333       0       0       0       0       0       000010000D0000387
     110       0       0       1       0                               0D0000388
     110     334       0       0       0       0       0       000010000D0000389
     110       0       0       2       0                               0D0000390
     110     336       0       0       0       0       0       000010000D0000391
     110       0       0       2       0                               0D0000392
     144     338       0       0       0       0       0       000020000D0000393
     144       0       0       1       0                               0D0000394
     108     339       0       0       0       0       0       000010000D0000395
     108       0       0       2       0                               0D0000396
     142     341       0       0       0       0       0       000010500D0000397
     142       0       0       1       0                               0D0000398
     102     342       0       0       0       0       0       000010000D0000399
     102       0       0       1       0                               0D0000400
     110     343       0       0       0       0       0       000010000D0000401
     110       0       0       1       0                               0D0000402
     110     344       0       0       0       0       0       000010000D0000403
     110       0       0       1       0                               0D0000404
     110     345       0       0       0       0       0       000010000D0000405
     110       0       0       1       0                               0D0000406
     110     346       0       0       0       0       0       000010000D0000407
     110       0       0       2       0                               0D0000408
     144     348       0       0       0       0       0       000020000D0000409
     144       0       0       1       0                               0D0000410
     108     349       0       0       0       0       0       000010000D0000411
     108       0       0       2       0                               0D0000412
     142     351       0       0       0       0       0       000010500D0000413
     142       0       0       1       0                               0D0000414
     102     352       0       0       0       0       0       000010000D0000415
     102       0       0       1       0                               0D0000416
     110     353       0       0       0       0       0       000010000D0000417
     110       0       0       2       0                               0D0000418
     110     355       0       0       0       0       0       000010000D0000419
     110       0       0       2       0                               0D0000420
     110     357       0       0       0       0       0       000010000D0000421
     110       0       0       2       0                               0D0000422
     110     359       0       0       0       0       0       000010000D0000423
     110       0       0       2       0                               0D0000424
402,9,3,23,41,61,77,93,113,131,179;                              0000001P0000001
144,5,1,0,7;                                                     0000003P0000002
108,-1.,-0.E+000,0.E+000,0.E+000,0,0.E+000,0.E+000,0.E+000,      0000005P0000003
0.E+000;                                                         0000005P0000004
142,0,5,0,9,2;                                                   0000007P0000005
102,6,11,13,15,17,19,21;                                         0000009P0000006
110,0.E+000,28.015698087,22.477787778,0.E+000,-3.552713679E-015, 0000011P0000007
55.270548402;                                                    0000011P0000008
110,0.E+000,0.E+000,55.270548402,0.E+000,0.E+000,100.;           0000013P0000009
110,0.E+000,0.E+000,100.,0.E+000,100.,100.;                      0000015P0000010
110,0.E+000,100.,100.,0.E+000,100.,0.E+000;                      0000017P0000011
110,0.E+000,100.,0.E+000,0.E+000,1.705137784,0.E+000;            0000019P0000012
110,0.E+000,1.705137784,0.E+000,0.E+000,28.015698087,            0000021P0000013
22.477787778;                                                    0000021P0000014
144,25,1,0,27;                                                   0000023P0000015
108,0.E+000,-1.,-0.E+000,0.E+000,0,0.E+000,0.E+000,0.E+000,      0000025P0000016
0.E+000;                                                         0000025P0000017
142,0,25,0,29,2;                                                 0000027P0000018
102,4,31,33,35,39;                                               0000029P0000019
110,0.E+000,0.E+000,100.,0.E+000,0.E+000,55.270548402;           0000031P0000020
110,0.E+000,0.E+000,55.270548402,52.641526138,0.E+000,           0000033P0000021
55.270548402;                                                    0000033P0000022
100,0.E+000,0.E+000,0.E+000,-19.729451598,-72.358473862,25.,     0000035P0000023
-70.710678119;                                                   0000035P0000024
124,0.E+000,1.,0.E+000,125.,0.E+000,0.E+000,1.,0.E+000,1.,       0000037P0000025
0.E+000,0.E+000,75.;                                             0000037P0000026
110,54.289321881,0.E+000,100.,0.E+000,0.E+000,100.;              0000039P0000027
144,43,1,0,45;                                                   0000041P0000028
108,0.E+000,0.E+000,1.,100.,0,0.E+000,0.E+000,100.,0.E+000;      0000043P0000029
142,0,43,0,47,2;                                                 0000045P0000030
102,5,49,51,53,55,59;                                            0000047P0000031
110,100.,100.,100.,0.E+000,100.,100.;                            0000049P0000032
110,0.E+000,100.,100.,0.E+000,0.E+000,100.;                      0000051P0000033
110,0.E+000,0.E+000,100.,54.289321881,0.E+000,100.;              0000053P0000034
100,0.E+000,0.E+000,0.E+000,-70.710678119,8.659274571E-015,-25., 0000055P0000035
-66.143782777;                                                   0000055P0000036
124,1.,0.E+000,0.E+000,125.,0.E+000,-1.,0.E+000,0.E+000,0.E+000, 0000057P0000037
0.E+000,-1.,100.;                                                0000057P0000038
110,100.,66.143782777,100.,100.,100.,100.;                       0000059P0000039
144,63,1,0,65;                                                   0000061P0000040
108,-0.E+000,1.,0.E+000,100.,0,0.E+000,100.,0.E+000,0.E+000;     0000063P0000041
142,0,63,0,67,2;                                                 0000065P0000042
102,4,69,71,73,75;                                               0000067P0000043
110,100.,100.,0.E+000,0.E+000,100.,0.E+000;                      0000069P0000044
110,0.E+000,100.,0.E+000,0.E+000,100.,100.;                      0000071P0000045
110,0.E+000,100.,100.,100.,100.,100.;                            0000073P0000046
110,100.,100.,100.,100.,100.,0.E+000;                            0000075P0000047
144,79,1,0,81;                                                   0000077P0000048
108,-0.E+000,-0.E+000,-1.,-0.E+000,0,0.E+000,0.E+000,0.E+000,    0000079P0000049
0.E+000;                                                         0000079P0000050
142,0,79,0,83,2;                                                 0000081P0000051
102,4,85,87,89,91;                                               0000083P0000052
110,100.,1.705137784,0.E+000,0.E+000,1.705137784,0.E+000;        0000085P0000053
110,0.E+000,1.705137784,0.E+000,0.E+000,100.,0.E+000;            0000087P0000054
110,0.E+000,100.,0.E+000,100.,100.,0.E+000;                      0000089P0000055
110,100.,100.,0.E+000,100.,1.705137784,0.E+000;                  0000091P0000056
144,95,1,0,97;                                                   0000093P0000057
108,0.E+000,-0.649555756,0.760313962,-1.107582062,0,-10.,-10.,   0000095P0000058
-10.,0.E+000;                                                    0000095P0000059
142,0,95,0,99,2;                                                 0000097P0000060
102,5,101,103,105,107,109;                                       0000099P0000061
110,79.376125943,28.015698087,22.477787778,0.E+000,28.015698087, 0000101P0000062
22.477787778;                                                    0000101P0000063
110,0.E+000,28.015698087,22.477787778,0.E+000,1.705137784,       0000103P0000064
0.E+000;                                                         0000103P0000065
110,0.E+000,1.705137784,0.E+000,100.,1.705137784,0.E+000;        0000105P0000066
110,100.,1.705137784,0.E+000,100.,7.150073876,4.651748824;       0000107P0000067
100,0.E+000,0.E+000,0.E+000,40.258810449,25.,12.81537884,        0000109P0000068
45.623874057;                                                    0000109P0000069
124,0.E+000,-1.,0.E+000,125.,-0.760313962,0.E+000,0.649555756,   0000111P0000070
37.759409544,-0.649555756,0.E+000,-0.760313962,30.802090863;     0000111P0000071
144,115,1,0,117;                                                 0000113P0000072
108,-0.E+000,-0.760313962,-0.649555756,-35.901302827,0,-10.,     0000115P0000073
28.015698087,22.477787778,0.E+000;                               0000115P0000074
142,0,115,0,119,2;                                               0000117P0000075
102,4,121,123,125,129;                                           0000119P0000076
110,0.E+000,-3.552713679E-015,55.270548402,0.E+000,28.015698087, 0000121P0000077
22.477787778;                                                    0000121P0000078
110,0.E+000,28.015698087,22.477787778,79.376125943,28.015698087, 0000123P0000079
22.477787778;                                                    0000123P0000080
100,0.E+000,0.E+000,0.E+000,-58.131129193,-45.623874057,         0000125P0000081
-15.000577508,-72.358473862;                                     0000125P0000082
124,0.E+000,1.,0.E+000,125.,-0.649555756,0.E+000,0.760313962,    0000127P0000083
-9.743711457,0.760313962,0.E+000,0.649555756,66.675696915;       0000127P0000084
110,52.641526138,0.E+000,55.270548402,0.E+000,0.E+000,           0000129P0000085
55.270548402;                                                    0000129P0000086
144,133,1,0,143;                                                 0000131P0000087
120,137,139,1.909640658,3.141592654;                             0000133P0000088
124,1.,0.E+000,0.E+000,125.,0.E+000,-1.,0.E+000,0.E+000,0.E+000, 0000135P0000089
0.E+000,1.,75.;                                                  0000135P0000090
110,0.E+000,0.E+000,1.,0.E+000,0.E+000,0.E+000;                  0000137P0000091
100,0.E+000,0.E+000,0.E+000,26.002375977,-70.348251176,          0000139P0000092
70.710678119,25.;                                                0000139P0000093
124,1.,0.E+000,0.E+000,0.E+000,0.E+000,0.E+000,-1.,0.E+000,      0000141P0000094
0.E+000,1.,-0.E+000,0.E+000;                                     0000141P0000095
142,0,133,145,157,3;                                             0000143P0000096
102,5,147,149,151,153,155;                                       0000145P0000097
126,22,8,1,0,1,0,4.986224594,4.986224594,4.986224594,            0000147P0000098
4.986224594,4.986224594,4.986224594,4.986224594,4.986224594,     0000147P0000099
4.986224594,5.310464773,5.310464773,5.310464773,5.310464773,     0000147P0000100
5.310464773,5.310464773,5.310464773,5.594174929,5.594174929,     0000147P0000101
5.594174929,5.594174929,5.594174929,5.594174929,5.594174929,     0000147P0000102
5.727480499,5.727480499,5.727480499,5.727480499,5.727480499,     0000147P0000103
5.727480499,5.727480499,5.727480499,5.727480499,1.,1.,1.,1.,1.,  0000147P0000104
1.,1.,1.,1.,1.,1.,1.,1.,1.,1.,1.,1.,1.,1.,1.,1.,1.,1.,           0000147P0000105
-0.775812292,2.590900572,0.E+000,-0.798246758,2.608201665,       0000147P0000106
0.E+000,-0.820953613,2.625244793,0.E+000,-0.843917887,           0000147P0000107
2.642030121,0.E+000,-0.86712508,2.658556506,0.E+000,             0000147P0000108
-0.890561142,2.674820846,0.E+000,-0.914212452,2.690817442,       0000147P0000109
0.E+000,-0.938065771,2.706536729,0.E+000,-0.983145301,           0000147P0000110
2.735460492,0.E+000,-1.004327191,2.748733714,0.E+000,            0000147P0000111
-1.025645209,2.761771636,0.E+000,-1.047090895,2.77455992,        0000147P0000112
0.E+000,-1.068655948,2.787078666,0.E+000,-1.09033219,            0000147P0000113
2.799300941,0.E+000,-1.1121115,2.81118872,0.E+000,-1.144263609,  0000147P0000114
2.828083959,0.E+000,-1.154562478,2.833397933,0.E+000,            0000147P0000115
-1.164881443,2.838618961,0.E+000,-1.175219651,2.84373986,        0000147P0000116
0.E+000,-1.185576242,2.848752228,0.E+000,-1.195950344,           0000147P0000117
2.853646009,0.E+000,-1.206341069,2.858409033,0.E+000,            0000147P0000118
-1.216747497,2.863026132,0.E+000,4.986224594,5.727480499,        0000147P0000119
0.E+000,0.E+000,1.;                                              0000147P0000120
126,50,8,1,0,1,0,3.242883082,3.242883082,3.242883082,            0000149P0000121
3.242883082,3.242883082,3.242883082,3.242883082,3.242883082,     0000149P0000122
3.242883082,3.262352869,3.262352869,3.262352869,3.262352869,     0000149P0000123
3.262352869,3.262352869,3.262352869,3.375565571,3.375565571,     0000149P0000124
3.375565571,3.375565571,3.375565571,3.375565571,3.375565571,     0000149P0000125
3.587839388,3.587839388,3.587839388,3.587839388,3.587839388,     0000149P0000126
3.587839388,3.587839388,3.773578978,3.773578978,3.773578978,     0000149P0000127
3.773578978,3.773578978,3.773578978,3.773578978,4.098623259,     0000149P0000128
4.098623259,4.098623259,4.098623259,4.098623259,4.098623259,     0000149P0000129
4.098623259,4.586189682,4.586189682,4.586189682,4.586189682,     0000149P0000130
4.586189682,4.586189682,4.586189682,5.073756104,5.073756104,     0000149P0000131
5.073756104,5.073756104,5.073756104,5.073756104,5.073756104,     0000149P0000132
5.073756104,5.073756104,1.,1.,1.,1.,1.,1.,1.,1.,1.,1.,1.,1.,1.,  0000149P0000133
1.,1.,1.,1.,1.,1.,1.,1.,1.,1.,1.,1.,1.,1.,1.,1.,1.,1.,1.,1.,1.,  0000149P0000134
1.,1.,1.,1.,1.,1.,1.,1.,1.,1.,1.,1.,1.,1.,1.,1.,1.,-1.216747497, 0000149P0000135
2.863026132,0.E+000,-1.216078278,2.856695625,0.E+000,            0000149P0000136
-1.215392129,2.850393106,0.E+000,-1.21468918,2.84411919,0.E+000, 0000149P0000137
-1.213969561,2.837874462,0.E+000,-1.213233406,2.831659485,       0000149P0000138
0.E+000,-1.212480853,2.825474788,0.E+000,-1.211712039,           0000149P0000139
2.819320876,0.E+000,-1.206362884,2.777596312,0.E+000,            0000149P0000140
-1.201253634,2.743051414,0.E+000,-1.195627045,2.709657265,       0000149P0000141
0.E+000,-1.189513211,2.677476022,0.E+000,-1.182943086,           0000149P0000142
2.646539552,0.E+000,-1.175947285,2.616854907,0.E+000,            0000149P0000143
-1.168555276,2.588410958,0.E+000,-1.146244541,2.510131007,       0000149P0000144
0.E+000,-1.130399442,2.463354349,0.E+000,-1.113444003,           0000149P0000145
2.420691747,0.E+000,-1.095543639,2.381815997,0.E+000,            0000149P0000146
-1.076835256,2.346358611,0.E+000,-1.057432314,2.313969008,       0000149P0000147
0.E+000,-1.037428691,2.28432426,0.E+000,-0.998942262,2.23334706, 0000149P0000148
0.E+000,-0.980581909,2.211438763,0.E+000,-0.961873932,           0000149P0000149
2.191218466,0.E+000,-0.942861503,2.17251336,0.E+000,             0000149P0000150
-0.923580557,2.155172378,0.E+000,-0.904061353,2.139064101,       0000149P0000151
0.E+000,-0.884329647,2.124073523,0.E+000,-0.829543837,           0000149P0000152
2.085646702,0.E+000,-0.794097026,2.064308405,0.E+000,            0000149P0000153
-0.758185489,2.045546194,0.E+000,-0.721893548,2.028955958,       0000149P0000154
0.E+000,-0.685285136,2.014226989,0.E+000,-0.648410725,           0000149P0000155
2.001114578,0.E+000,-0.61131071,1.989422765,0.E+000,             0000149P0000156
-0.518080081,1.96334893,0.E+000,-0.461709159,1.950544734,        0000149P0000157
0.E+000,-0.405018147,1.940046187,0.E+000,-0.34808324,            0000149P0000158
1.931508207,0.E+000,-0.290963662,1.924688761,0.E+000,            0000149P0000159
-0.233707251,1.919421338,0.E+000,-0.176355489,1.915595444,       0000149P0000160
0.E+000,-6.153761404E-002,1.910705106,0.E+000,-4.071502313E-003, 0000149P0000161
1.909640658,0.E+000,5.341359922E-002,1.909896073,0.E+000,        0000149P0000162
0.110882714,1.911460004,0.E+000,0.168300816,1.914363231,0.E+000, 0000149P0000163
0.225630148,1.918681883,0.E+000,0.282827331,1.924545225,0.E+000, 0000149P0000164
0.339836909,1.932163451,0.E+000,3.242883082,5.073756104,0.E+000, 0000149P0000165
0.E+000,1.;                                                      0000149P0000166
110,0.339836909,1.932163451,0.E+000,0.339836909,3.141592654,     0000151P0000167
0.E+000;                                                         0000151P0000168
110,0.339836909,3.141592654,0.E+000,-0.266191878,3.141592654,    0000153P0000169
0.E+000;                                                         0000153P0000170
126,15,8,1,0,1,0,3.901180755,3.901180755,3.901180755,            0000155P0000171
3.901180755,3.901180755,3.901180755,3.901180755,3.901180755,     0000155P0000172
3.901180755,4.204578038,4.204578038,4.204578038,4.204578038,     0000155P0000173
4.204578038,4.204578038,4.204578038,4.602132443,4.602132443,     0000155P0000174
4.602132443,4.602132443,4.602132443,4.602132443,4.602132443,     0000155P0000175
4.602132443,4.602132443,1.,1.,1.,1.,1.,1.,1.,1.,1.,1.,1.,1.,1.,  0000155P0000176
1.,1.,1.,-0.266191878,3.141592654,0.E+000,-0.295026527,          0000155P0000177
3.116958472,0.E+000,-0.323861176,3.092102946,0.E+000,            0000155P0000178
-0.352669161,3.066956691,0.E+000,-0.381422812,3.041445946,       0000155P0000179
0.E+000,-0.410092858,3.015491301,0.E+000,-0.438647728,           0000155P0000180
2.989006178,0.E+000,-0.467052666,2.961895048,0.E+000,            0000155P0000181
-0.532240999,2.89756671,0.E+000,-0.568888834,2.859824305,        0000155P0000182
0.E+000,-0.605123982,2.820584571,0.E+000,-0.640845519,           0000155P0000183
2.77957585,0.E+000,-0.675934787,2.73648609,0.E+000,-0.710249689, 0000155P0000184
2.690957279,0.E+000,-0.743614803,2.642575453,0.E+000,            0000155P0000185
-0.775812292,2.590900572,0.E+000,3.901180755,4.602132443,        0000155P0000186
0.E+000,0.E+000,1.;                                              0000155P0000187
102,5,159,163,167,171,175;                                       0000157P0000188
100,0.E+000,0.E+000,0.E+000,12.81537884,-45.623874057,           0000159P0000189
40.258810449,-25.;                                               0000159P0000190
124,0.E+000,1.,0.E+000,125.,-0.760313962,0.E+000,-0.649555756,   0000161P0000191
37.759409544,-0.649555756,0.E+000,0.760313962,30.802090863;      0000161P0000192
100,0.E+000,0.E+000,0.E+000,-70.348251176,-7.150073876,25.,      0000163P0000193
-66.143782777;                                                   0000163P0000194
124,0.E+000,0.E+000,1.,100.,0.E+000,-1.,0.E+000,0.E+000,1.,      0000165P0000195
0.E+000,0.E+000,75.;                                             0000165P0000196
100,0.E+000,0.E+000,0.E+000,-25.,66.143782777,-70.710678119,     0000167P0000197
8.659274571E-015;                                                0000167P0000198
124,1.,0.E+000,0.E+000,125.,0.E+000,1.,0.E+000,0.E+000,0.E+000,  0000169P0000199
0.E+000,1.,100.;                                                 0000169P0000200
100,0.E+000,0.E+000,0.E+000,25.,70.710678119,-19.729451598,      0000171P0000201
72.358473862;                                                    0000171P0000202
124,0.E+000,-1.,0.E+000,125.,0.E+000,0.E+000,-1.,0.E+000,1.,     0000173P0000203
0.E+000,0.E+000,75.;                                             0000173P0000204
100,0.E+000,0.E+000,0.E+000,-15.000577508,72.358473862,          0000175P0000205
-58.131129193,45.623874057;                                      0000175P0000206
124,0.E+000,-1.,0.E+000,125.,-0.649555756,0.E+000,-0.760313962,  0000177P0000207
-9.743711457,0.760313962,0.E+000,-0.649555756,66.675696915;      0000177P0000208
144,181,1,0,183;                                                 0000179P0000209
108,1.,0.E+000,-0.E+000,100.,0,100.,0.E+000,0.E+000,0.E+000;     0000181P0000210
142,0,181,0,185,2;                                               0000183P0000211
102,5,187,189,191,193,195;                                       0000185P0000212
110,100.,7.150073876,4.651748824,100.,1.705137784,0.E+000;       0000187P0000213
110,100.,1.705137784,0.E+000,100.,100.,0.E+000;                  0000189P0000214
110,100.,100.,0.E+000,100.,100.,100.;                            0000191P0000215
110,100.,100.,100.,100.,66.143782777,100.;                       0000193P0000216
100,0.E+000,0.E+000,0.E+000,25.,66.143782777,-70.348251176,      0000195P0000217
7.150073876;                                                     0000195P0000218
124,0.E+000,0.E+000,-1.,100.,0.E+000,1.,0.E+000,0.E+000,1.,      0000197P0000219
0.E+000,0.E+000,75.;                                             0000197P0000220
144,201,1,0,211;                                                 0000199P0000221
120,205,207,0.E+000,6.283185307;                                 0000201P0000222
124,1.,0.E+000,0.E+000,-175.,0.E+000,1.,0.E+000,200.,0.E+000,    0000203P0000223
0.E+000,1.,75.;                                                  0000203P0000224
110,0.E+000,0.E+000,1.,0.E+000,0.E+000,0.E+000;                  0000205P0000225
100,0.E+000,0.E+000,0.E+000,4.592273827E-015,-75.,               0000207P0000226
4.592273827E-015,75.;                                            0000207P0000227
124,1.,0.E+000,0.E+000,0.E+000,0.E+000,0.E+000,-1.,0.E+000,      0000209P0000228
0.E+000,1.,-0.E+000,0.E+000;                                     0000209P0000229
142,0,201,213,219,3;                                             0000211P0000230
102,2,215,217;                                                   0000213P0000231
110,1.570796327,6.283185307,0.E+000,-1.570796327,6.283185307,    0000215P0000232
0.E+000;                                                         0000215P0000233
110,-1.570796327,1.046360549E-015,0.E+000,1.570796327,           0000217P0000234
1.743934249E-015,0.E+000;                                        0000217P0000235
102,2,221,225;                                                   0000219P0000236
100,0.E+000,0.E+000,0.E+000,0.E+000,-75.,0.E+000,75.;            0000221P0000237
124,1.,0.E+000,2.449212708E-016,-175.,-2.449212708E-016,         0000223P0000238
-0.E+000,1.,200.,0.E+000,-1.,0.E+000,75.;                        0000223P0000239
100,0.E+000,0.E+000,0.E+000,0.E+000,-75.,2.842170943E-014,75.;   0000225P0000240
124,1.,0.E+000,-2.449212708E-016,-175.,-2.449212708E-016,        0000227P0000241
0.E+000,-1.,200.,0.E+000,1.,0.E+000,75.;                         0000227P0000242
402,6,231,247,263,279,295,311;                                   0000229P0000243
144,233,1,0,235;                                                 0000231P0000244
108,-1.,-0.E+000,-0.E+000,-0.E+000,0,0.E+000,200.,0.E+000,       0000233P0000245
0.E+000;                                                         0000233P0000246
142,0,233,0,237,2;                                               0000235P0000247
102,4,239,241,243,245;                                           0000237P0000248
110,0.E+000,300.,0.E+000,0.E+000,200.,0.E+000;                   0000239P0000249
110,0.E+000,200.,0.E+000,0.E+000,200.,100.;                      0000241P0000250
110,0.E+000,200.,100.,0.E+000,300.,100.;                         0000243P0000251
110,0.E+000,300.,100.,0.E+000,300.,0.E+000;                      0000245P0000252
144,249,1,0,251;                                                 0000247P0000253
108,1.,0.E+000,0.E+000,100.,0,100.,200.,0.E+000,0.E+000;         0000249P0000254
142,0,249,0,253,2;                                               0000251P0000255
102,4,255,257,259,261;                                           0000253P0000256
110,100.,200.,100.,100.,200.,0.E+000;                            0000255P0000257
110,100.,200.,0.E+000,100.,300.,0.E+000;                         0000257P0000258
110,100.,300.,0.E+000,100.,300.,100.;                            0000259P0000259
110,100.,300.,100.,100.,200.,100.;                               0000261P0000260
144,265,1,0,267;                                                 0000263P0000261
108,-0.E+000,-1.,-0.E+000,-200.,0,0.E+000,200.,0.E+000,0.E+000;  0000265P0000262
142,0,265,0,269,2;                                               0000267P0000263
102,4,271,273,275,277;                                           0000269P0000264
110,0.E+000,200.,100.,0.E+000,200.,0.E+000;                      0000271P0000265
110,0.E+000,200.,0.E+000,100.,200.,0.E+000;                      0000273P0000266
110,100.,200.,0.E+000,100.,200.,100.;                            0000275P0000267
110,100.,200.,100.,0.E+000,200.,100.;                            0000277P0000268
144,281,1,0,283;                                                 0000279P0000269
108,0.E+000,1.,0.E+000,300.,0,0.E+000,300.,0.E+000,0.E+000;      0000281P0000270
142,0,281,0,285,2;                                               0000283P0000271
102,4,287,289,291,293;                                           0000285P0000272
110,100.,300.,0.E+000,0.E+000,300.,0.E+000;                      0000287P0000273
110,0.E+000,300.,0.E+000,0.E+000,300.,100.;                      0000289P0000274
110,0.E+000,300.,100.,100.,300.,100.;                            0000291P0000275
110,100.,300.,100.,100.,300.,0.E+000;                            0000293P0000276
144,297,1,0,299;                                                 0000295P0000277
108,-0.E+000,-0.E+000,-1.,-0.E+000,0,0.E+000,200.,0.E+000,       0000297P0000278
0.E+000;                                                         0000297P0000279
142,0,297,0,301,2;                                               0000299P0000280
102,4,303,305,307,309;                                           0000301P0000281
110,100.,200.,0.E+000,0.E+000,200.,0.E+000;                      0000303P0000282
110,0.E+000,200.,0.E+000,0.E+000,300.,0.E+000;                   0000305P0000283
110,0.E+000,300.,0.E+000,100.,300.,0.E+000;                      0000307P0000284
110,100.,300.,0.E+000,100.,200.,0.E+000;                         0000309P0000285
144,313,1,0,315;                                                 0000311P0000286
108,0.E+000,0.E+000,1.,100.,0,0.E+000,200.,100.,0.E+000;         0000313P0000287
142,0,313,0,317,2;                                               0000315P0000288
102,4,319,321,323,325;                                           0000317P0000289
110,0.E+000,300.,100.,0.E+000,200.,100.;                         0000319P0000290
110,0.E+000,200.,100.,100.,200.,100.;                            0000321P0000291
110,100.,200.,100.,100.,300.,100.;                               0000323P0000292
110,100.,300.,100.,0.E+000,300.,100.;                            0000325P0000293
402,6,329,345,361,377,393,409;                                   0000327P0000294
144,331,1,0,333;                                                 0000329P0000295
108,-0.E+000,0.649555756,-0.760313962,131.018733173,0,190.,190., 0000331P0000296
-10.,0.E+000;                                                    0000331P0000297
142,0,331,0,335,2;                                               0000333P0000298
102,4,337,339,341,343;                                           0000335P0000299
110,390.,190.,-10.,190.,190.,-10.;                               0000337P0000300
110,190.,190.,-10.,190.,228.015698087,22.477787778;              0000339P0000301
110,190.,228.015698087,22.477787778,390.,228.015698087,          0000341P0000302
22.477787778;                                                    0000341P0000303
110,390.,228.015698087,22.477787778,390.,190.,-10.;              0000343P0000304
144,347,1,0,349;                                                 0000345P0000305
108,0.E+000,-0.649555756,0.760313962,-81.018733173,0,190.,       0000347P0000306
157.522212222,28.015698087,0.E+000;                              0000347P0000307
142,0,347,0,351,2;                                               0000349P0000308
102,4,353,355,357,359;                                           0000351P0000309
110,190.,195.537910309,60.493485865,190.,157.522212222,          0000353P0000310
28.015698087;                                                    0000353P0000311
110,190.,157.522212222,28.015698087,390.,157.522212222,          0000355P0000312
28.015698087;                                                    0000355P0000313
110,390.,157.522212222,28.015698087,390.,195.537910309,          0000357P0000314
60.493485865;                                                    0000357P0000315
110,390.,195.537910309,60.493485865,190.,195.537910309,          0000359P0000316
60.493485865;                                                    0000359P0000317
144,363,1,0,365;                                                 0000361P0000318
108,-1.,-0.E+000,-0.E+000,-190.,0,190.,190.,-10.,0.E+000;        0000363P0000319
142,0,363,0,367,2;                                               0000365P0000320
102,4,369,371,373,375;                                           0000367P0000321
110,190.,228.015698087,22.477787778,190.,190.,-10.;              0000369P0000322
110,190.,190.,-10.,190.,157.522212222,28.015698087;              0000371P0000323
110,190.,157.522212222,28.015698087,190.,195.537910309,          0000373P0000324
60.493485865;                                                    0000373P0000325
110,190.,195.537910309,60.493485865,190.,228.015698087,          0000375P0000326
22.477787778;                                                    0000375P0000327
144,379,1,0,381;                                                 0000377P0000328
108,1.,0.E+000,0.E+000,390.,0,390.,190.,-10.,0.E+000;            0000379P0000329
142,0,379,0,383,2;                                               0000381P0000330
102,4,385,387,389,391;                                           0000383P0000331
110,390.,157.522212222,28.015698087,390.,190.,-10.;              0000385P0000332
110,390.,190.,-10.,390.,228.015698087,22.477787778;              0000387P0000333
110,390.,228.015698087,22.477787778,390.,195.537910309,          0000389P0000334
60.493485865;                                                    0000389P0000335
110,390.,195.537910309,60.493485865,390.,157.522212222,          0000391P0000336
28.015698087;                                                    0000391P0000337
144,395,1,0,397;                                                 0000393P0000338
108,-0.E+000,-0.760313962,-0.649555756,-137.964095176,0,190.,    0000395P0000339
190.,-10.,0.E+000;                                               0000395P0000340
142,0,395,0,399,2;                                               0000397P0000341
102,4,401,403,405,407;                                           0000399P0000342
110,190.,157.522212222,28.015698087,190.,190.,-10.;              0000401P0000343
110,190.,190.,-10.,390.,190.,-10.;                               0000403P0000344
110,390.,190.,-10.,390.,157.522212222,28.015698087;              0000405P0000345
110,390.,157.522212222,28.015698087,190.,157.522212222,          0000407P0000346
28.015698087;                                                    0000407P0000347
144,411,1,0,413;                                                 0000409P0000348
108,0.E+000,0.760313962,0.649555756,187.964095176,0,190.,        0000411P0000349
228.015698087,22.477787778,0.E+000;                              0000411P0000350
142,0,411,0,415,2;                                               0000413P0000351
102,4,417,419,421,423;                                           0000415P0000352
110,390.,228.015698087,22.477787778,190.,228.015698087,          0000417P0000353
22.477787778;                                                    0000417P0000354
110,190.,228.015698087,22.477787778,190.,195.537910309,          0000419P0000355
60.493485865;                                                    0000419P0000356
110,190.,195.537910309,60.493485865,390.,195.537910309,          0000421P0000357
60.493485865;                                                    0000421P0000358
110,390.,195.537910309,60.493485865,390.,228.015698087,          0000423P0000359
22.477787778;                                                    0000423P0000360
S      1G      4D    424P    360                                        T0000001
